<?xml version="1.0" encoding="utf-8"?>
<!-- Generator: Adobe Illustrator 22.1.0, SVG Export Plug-In . SVG Version: 6.00 Build 0)  -->
<svg version="1.1" id="Layer_1" xmlns="http://www.w3.org/2000/svg" xmlns:xlink="http://www.w3.org/1999/xlink" x="0px" y="0px"
	 viewBox="0 0 1400 980" style="enable-background:new 0 0 1400 980;" xml:space="preserve">
<style type="text/css">
	.st0{fill:none;}
	.st1{fill:#81AACC;}
	.st2{fill:#FFFFFF;}
	.st3{fill:url(#New_Pattern_Swatch_4);}
</style>
<pattern  width="185" height="166" patternUnits="userSpaceOnUse" id="New_Pattern_Swatch_4" viewBox="0 -166 185 166" style="overflow:visible;">
	<g>
		<rect y="-166" class="st0" width="185" height="166"/>
		<path class="st1" d="M36.9-166H22.6c2.1,1.2,4.6,1.9,7.2,1.9S34.8-164.8,36.9-166z"/>
		<path class="st1" d="M2.6-87.3c-0.4-1.1-0.6-2.9-0.6-4c0-4.9,3.5-9,8.2-9.5l0.4,0l0-0.4c0.9-7.3,6.9-12.8,14-12.8
			c5.2,0,9.9,2.9,12.4,7.6l0.2,0.4l0.4-0.1c1.1-0.4,2.3-0.6,3.5-0.6c5.8,0,10.6,4.9,10.8,11l0,0.4l0.3,0.1c3.4,0.6,5.8,3.5,5.8,6.9
			v0.4c0,3.8-2.8,8.2-6.7,8.2H10.4c-3.8,0-7.4-3.4-7.7-7.2L2.6-87.3z M43.3-88l1,0c0.2-4.9,5.3-6.5,5.5-6.5l-0.3-1
			C49.5-95.5,43.5-93.6,43.3-88z M25.6-96c0.5,0,1,0.1,1.5,0.1c2.8,0,5.2-0.7,6.9-2.2c2.7-2.3,2.9-5.5,2.9-5.6l-1-0.1
			c0,0-0.2,2.9-2.6,4.9c-1.8,1.5-4.3,2.2-7.6,1.9L25.6-96z M12.3-99.6c0,0,3.4,0.5,5.2,3c1.1,1.5,1.5,3.5,1,5.9l1,0.2
			c0.5-2.6,0.1-4.9-1.2-6.6c-2.1-2.9-5.7-3.4-5.9-3.4L12.3-99.6z"/>
		<path class="st1" d="M14.4,0H0v-166h14.4c-0.3,0.1-0.5,0.2-0.8,0.5L9.1-161c-0.8,0.8-0.8,2,0,2.7l0.2,0.2c0.8,0.8,2,0.8,2.7,0
			l4.6-4.6c0.8-0.8,0.8-2,0-2.7l-0.2-0.2c-0.2-0.2-0.5-0.4-0.8-0.5h5.1c2.5,1.8,5.7,2.9,9,2.9c3.4,0,6.5-1.1,9-2.9h4.8
			c-0.3,0.1-0.5,0.2-0.8,0.5l-0.2,0.2c-0.8,0.8-0.8,2,0,2.7l4.6,4.6c0.8,0.8,2,0.8,2.7,0l0.2-0.2c0.8-0.8,0.8-2,0-2.7l-4.6-4.6
			c-0.2-0.2-0.5-0.4-0.8-0.5H185V0H44.8c-0.4-0.1-0.8-0.1-1.2,0h-4.8c4-2.8,6.6-7.5,6.6-12.7c0-8.6-7-15.6-15.6-15.6
			s-15.6,7-15.6,15.6c0,5.3,2.6,9.9,6.6,12.7h-5.1C15.2-0.1,14.8-0.1,14.4,0z M31-40.1c0-1.1-0.9-1.9-1.9-1.9h-0.1
			c-1.1,0-1.9,0.9-1.9,1.9v7.1c0,1.1,0.9,1.9,1.9,1.9h0.1c1.1,0,1.9-0.9,1.9-1.9V-40.1z M45.5-25.6l4.6-4.6c0.8-0.8,0.8-2,0-2.7
			l-0.2-0.2c-0.8-0.8-2-0.8-2.7,0l-4.6,4.6c-0.8,0.8-0.8,2,0,2.7l0.2,0.2C43.6-24.8,44.8-24.8,45.5-25.6z M59-12.7
			c0-1.1-1.4-2.3-2.5-2.3h-6.4C49-15,48-13.8,48-12.7v0.3c0,1.1,1,2.4,2.1,2.4h6.4c1.1,0,2.5-1.4,2.5-2.4V-12.7z M148.5-137h-6.4
			c-1.1,0-2.1,1.2-2.1,2.3v0.3c0,1.1,1,2.4,2.1,2.4h6.4c1.1,0,2.5-1.4,2.5-2.4v-0.3C151-135.8,149.6-137,148.5-137z M142.1-117
			l-4.6-4.6c-0.8-0.8-2-0.8-2.7,0l-0.2,0.2c-0.8,0.8-0.8,2,0,2.7l4.6,4.6c0.8,0.8,2,0.8,2.7,0l0.2-0.2
			C142.9-115,142.9-116.2,142.1-117z M134.6-147.8l0.2,0.2c0.8,0.8,2,0.8,2.7,0l4.6-4.6c0.8-0.8,0.8-2,0-2.7l-0.2-0.2
			c-0.8-0.8-2-0.8-2.7,0l-4.6,4.6C133.9-149.8,133.9-148.5,134.6-147.8z M119-154.9c0,1.1,0.9,1.9,1.9,1.9h0.1
			c1.1,0,1.9-0.9,1.9-1.9v-7.1c0-1.1-0.9-1.9-1.9-1.9h-0.1c-1.1,0-1.9,0.9-1.9,1.9V-154.9z M106.2-134.7c0,8.6,7,15.6,15.6,15.6
			s15.6-7,15.6-15.6c0-8.6-7-15.6-15.6-15.6S106.2-143.4,106.2-134.7z M121.1-116h-0.1c-1.1,0-1.9,0.9-1.9,1.9v7.1
			c0,1.1,0.9,1.9,1.9,1.9h0.1c1.1,0,1.9-0.9,1.9-1.9v-7.1C123-115.1,122.1-116,121.1-116z M108.6-121.4l-0.2-0.2
			c-0.8-0.8-2-0.8-2.7,0l-4.6,4.6c-0.8,0.8-0.8,2,0,2.7l0.2,0.2c0.8,0.8,2,0.8,2.7,0l4.6-4.6C109.3-119.4,109.3-120.6,108.6-121.4z
			 M101.1-152.2l4.6,4.6c0.8,0.8,2,0.8,2.7,0l0.2-0.2c0.8-0.8,0.8-2,0-2.7l-4.6-4.6c-0.8-0.8-2-0.8-2.7,0l-0.2,0.2
			C100.3-154.1,100.3-152.9,101.1-152.2z M93-135c0,1.1,0.9,2,2,2h6c1.1,0,2-0.9,2-2c0-1.1-0.9-2-2-2h-6C93.9-137,93-136.1,93-135z
			 M93-47.4c0,1.2,0.2,3,0.7,4.3c0.3,4.2,4.5,8.1,8.7,8.1h40.9c4.6,0,7.7-4.8,7.7-9.2v-0.4c0-3.8-2.5-7.1-6.2-7.9
			c-0.3-6.4-5.4-11.5-11.6-11.5c-1.1,0-2.3,0.2-3.4,0.5c-2.7-4.8-7.7-7.7-13.1-7.7c-7.5,0-13.9,5.7-15,13.3
			C96.7-57.1,93-52.7,93-47.4z M27-150.9c0,1.1,0.9,1.9,1.9,1.9h0.1c1.1,0,1.9-0.9,1.9-1.9v-7.1c0-1.1-0.9-1.9-1.9-1.9h-0.1
			c-1.1,0-1.9,0.9-1.9,1.9V-150.9z M1-91.4c0,1.2,0.2,3,0.7,4.3C2-82.8,6.1-79,10.4-79h40.9c4.6,0,7.7-4.8,7.7-9.2v-0.4
			c0-3.8-2.5-7.1-6.2-7.9c-0.3-6.4-5.4-11.5-11.6-11.5c-1.1,0-2.3,0.2-3.4,0.5c-2.7-4.8-7.7-7.7-13.1-7.7c-7.5,0-13.9,5.7-15,13.3
			C4.7-101.1,1-96.7,1-91.4z M11-13c0-1.1-0.9-2-2-2H3c-1.1,0-2,0.9-2,2s0.9,2,2,2h6C10.1-11,11-11.9,11-13z M13.7-25.6
			c0.8,0.8,2,0.8,2.7,0l0.2-0.2c0.8-0.8,0.8-2,0-2.7L12-33.1c-0.8-0.8-2-0.8-2.7,0l-0.2,0.2c-0.8,0.8-0.8,2,0,2.7L13.7-25.6z"/>
		<path class="st1" d="M121.8-120.1c8.1,0,14.6-6.6,14.6-14.6c0-8.1-6.6-14.6-14.6-14.6s-14.6,6.6-14.6,14.6
			C107.2-126.7,113.7-120.1,121.8-120.1z"/>
		<path class="st1" d="M44.4-12.7c0-8.1-6.6-14.6-14.6-14.6s-14.6,6.6-14.6,14.6c0,5.5,3,10.2,7.5,12.7h14.3
			C41.4-2.5,44.4-7.3,44.4-12.7z"/>
		<path class="st1" d="M94.6-43.3c-0.4-1.1-0.6-2.9-0.6-4c0-4.9,3.5-9,8.2-9.5l0.4,0l0-0.4c0.9-7.3,6.9-12.8,14-12.8
			c5.2,0,9.9,2.9,12.4,7.6l0.2,0.4l0.4-0.1c1.1-0.4,2.3-0.6,3.5-0.6c5.8,0,10.6,4.9,10.8,11l0,0.4l0.3,0.1c3.4,0.6,5.8,3.5,5.8,6.9
			v0.4c0,3.8-2.8,8.2-6.7,8.2h-40.9c-3.8,0-7.4-3.4-7.7-7.2L94.6-43.3z M135.3-44l1,0c0.2-4.9,5.3-6.5,5.5-6.5l-0.3-1
			C141.5-51.5,135.5-49.6,135.3-44z M117.6-52c0.5,0,1,0.1,1.5,0.1c2.8,0,5.2-0.7,6.9-2.2c2.7-2.3,2.9-5.5,2.9-5.6l-1-0.1
			c0,0-0.2,2.9-2.6,4.9c-1.8,1.5-4.3,2.2-7.6,1.9L117.6-52z M104.3-55.6c0,0,3.4,0.5,5.2,3c1.1,1.5,1.5,3.5,1,5.9l1,0.2
			c0.5-2.6,0.1-4.9-1.2-6.6c-2.1-2.9-5.7-3.4-5.9-3.4L104.3-55.6z"/>
		<path class="st2" d="M106.2-134.7c0-8.6,7-15.6,15.6-15.6s15.6,7,15.6,15.6c0,8.6-7,15.6-15.6,15.6S106.2-126.1,106.2-134.7z
			 M107.2-134.7c0,8.1,6.6,14.6,14.6,14.6s14.6-6.6,14.6-14.6c0-8.1-6.6-14.6-14.6-14.6S107.2-142.8,107.2-134.7z"/>
		<path class="st2" d="M120.9-153h0.1c1.1,0,1.9-0.9,1.9-1.9v-7.1c0-1.1-0.9-1.9-1.9-1.9h-0.1c-1.1,0-1.9,0.9-1.9,1.9v7.1
			C119-153.9,119.9-153,120.9-153z"/>
		<path class="st2" d="M120.9-116c-1.1,0-1.9,0.9-1.9,1.9v7.1c0,1.1,0.9,1.9,1.9,1.9h0.1c1.1,0,1.9-0.9,1.9-1.9v-7.1
			c0-1.1-0.9-1.9-1.9-1.9H120.9z"/>
		<path class="st2" d="M95-133h6c1.1,0,2-0.9,2-2c0-1.1-0.9-2-2-2h-6c-1.1,0-2,0.9-2,2C93-133.9,93.9-133,95-133z"/>
		<path class="st2" d="M140-134.7v0.3c0,1.1,1,2.4,2.1,2.4h6.4c1.1,0,2.5-1.4,2.5-2.4v-0.3c0-1.1-1.4-2.3-2.5-2.3h-6.4
			C141-137,140-135.8,140-134.7z"/>
		<path class="st2" d="M105.7-121.5l-4.6,4.6c-0.8,0.8-0.8,2,0,2.7l0.2,0.2c0.8,0.8,2,0.8,2.7,0l4.6-4.6c0.8-0.8,0.8-2,0-2.7
			l-0.2-0.2C107.6-122.3,106.4-122.3,105.7-121.5z"/>
		<path class="st2" d="M134.8-147.6c0.8,0.8,2,0.8,2.7,0l4.6-4.6c0.8-0.8,0.8-2,0-2.7l-0.2-0.2c-0.8-0.8-2-0.8-2.7,0l-4.6,4.6
			c-0.8,0.8-0.8,2,0,2.7L134.8-147.6z"/>
		<path class="st2" d="M134.8-121.5l-0.2,0.2c-0.8,0.8-0.8,2,0,2.7l4.6,4.6c0.8,0.8,2,0.8,2.7,0l0.2-0.2c0.8-0.8,0.8-2,0-2.7
			l-4.6-4.6C136.8-122.3,135.6-122.3,134.8-121.5z"/>
		<path class="st2" d="M105.7-147.6c0.8,0.8,2,0.8,2.7,0l0.2-0.2c0.8-0.8,0.8-2,0-2.7l-4.6-4.6c-0.8-0.8-2-0.8-2.7,0l-0.2,0.2
			c-0.8,0.8-0.8,2,0,2.7L105.7-147.6z"/>
		<path class="st2" d="M38.8-166h-1.9c-2.1,1.2-4.6,1.9-7.2,1.9s-5-0.7-7.2-1.9h-1.9c2.5,1.8,5.7,2.9,9,2.9
			C33.1-163.1,36.2-164.2,38.8-166z"/>
		<path class="st2" d="M28.9-149h0.1c1.1,0,1.9-0.9,1.9-1.9v-7.1c0-1.1-0.9-1.9-1.9-1.9h-0.1c-1.1,0-1.9,0.9-1.9,1.9v7.1
			C27-149.9,27.9-149,28.9-149z"/>
		<path class="st2" d="M9.1-161c-0.8,0.8-0.8,2,0,2.7l0.2,0.2c0.8,0.8,2,0.8,2.7,0l4.6-4.6c0.8-0.8,0.8-2,0-2.7l-0.2-0.2
			c-0.2-0.2-0.5-0.4-0.8-0.5h-1.2c-0.3,0.1-0.5,0.2-0.8,0.5L9.1-161z"/>
		<path class="st2" d="M42.6-165.4c-0.8,0.8-0.8,2,0,2.7l4.6,4.6c0.8,0.8,2,0.8,2.7,0l0.2-0.2c0.8-0.8,0.8-2,0-2.7l-4.6-4.6
			c-0.2-0.2-0.5-0.4-0.8-0.5h-1.2c-0.3,0.1-0.5,0.2-0.8,0.5L42.6-165.4z"/>
		<path class="st2" d="M93.7-43.1c-0.5-1.3-0.7-3.1-0.7-4.3c0-5.3,3.7-9.7,8.7-10.5c1.1-7.6,7.5-13.3,15-13.3c5.4,0,10.4,3,13.1,7.7
			c1.1-0.4,2.3-0.5,3.4-0.5c6.2,0,11.3,5.1,11.6,11.5c3.7,0.8,6.2,4,6.2,7.9v0.4c0,4.3-3.1,9.2-7.7,9.2h-40.9
			C98.1-35,94-38.8,93.7-43.1z M94-47.4c0,1.2,0.2,2.9,0.6,4l0,0.1c0.3,3.8,3.9,7.2,7.7,7.2h40.9c4,0,6.7-4.4,6.7-8.2v-0.4
			c0-3.5-2.3-6.4-5.8-6.9l-0.3-0.1l0-0.4c-0.1-6-4.9-11-10.8-11c-1.2,0-2.3,0.2-3.5,0.6l-0.4,0.1l-0.2-0.4
			c-2.5-4.7-7.2-7.6-12.4-7.6c-7.1,0-13.1,5.5-14,12.8l0,0.4l-0.4,0C97.5-56.4,94-52.3,94-47.4z"/>
		<path class="st2" d="M125.9-54.2c2.7-2.3,2.9-5.5,2.9-5.6l-1-0.1c0,0-0.2,2.9-2.6,4.9c-1.8,1.5-4.3,2.2-7.6,1.9l-0.1,1
			c0.5,0,1,0.1,1.5,0.1C121.9-51.9,124.2-52.7,125.9-54.2z"/>
		<path class="st2" d="M109.5-52.6c1.1,1.5,1.5,3.5,1,5.9l1,0.2c0.5-2.6,0.1-4.9-1.2-6.6c-2.1-2.9-5.7-3.4-5.9-3.4l-0.1,1
			C104.3-55.6,107.6-55.1,109.5-52.6z"/>
		<path class="st2" d="M141.8-50.5l-0.3-1c-0.1,0-6,1.8-6.2,7.5l1,0C136.5-48.9,141.6-50.5,141.8-50.5z"/>
		<path class="st2" d="M1.7-87.1C1.2-88.3,1-90.2,1-91.4c0-5.3,3.7-9.7,8.7-10.5c1.1-7.6,7.5-13.3,15-13.3c5.4,0,10.4,3,13.1,7.7
			c1.1-0.4,2.3-0.5,3.4-0.5c6.2,0,11.3,5.1,11.6,11.5c3.7,0.8,6.2,4,6.2,7.9v0.4c0,4.3-3.1,9.2-7.7,9.2H10.4C6.1-79,2-82.8,1.7-87.1
			z M2-91.4c0,1.2,0.2,2.9,0.6,4l0,0.1c0.3,3.8,3.9,7.2,7.7,7.2h40.9c4,0,6.7-4.4,6.7-8.2v-0.4c0-3.5-2.3-6.4-5.8-6.9l-0.3-0.1
			l0-0.4c-0.1-6-4.9-11-10.8-11c-1.2,0-2.3,0.2-3.5,0.6l-0.4,0.1l-0.2-0.4c-2.5-4.7-7.2-7.6-12.4-7.6c-7.1,0-13.1,5.5-14,12.8l0,0.4
			l-0.4,0C5.5-100.4,2-96.3,2-91.4z"/>
		<path class="st2" d="M33.9-98.2c2.7-2.3,2.9-5.5,2.9-5.6l-1-0.1c0,0-0.2,2.9-2.6,4.9c-1.8,1.5-4.3,2.2-7.6,1.9l-0.1,1
			c0.5,0,1,0.1,1.5,0.1C29.9-95.9,32.2-96.7,33.9-98.2z"/>
		<path class="st2" d="M17.5-96.6c1.1,1.5,1.5,3.5,1,5.9l1,0.2c0.5-2.6,0.1-4.9-1.2-6.6c-2.1-2.9-5.7-3.4-5.9-3.4l-0.1,1
			C12.3-99.6,15.6-99.1,17.5-96.6z"/>
		<path class="st2" d="M49.8-94.5l-0.3-1c-0.1,0-6,1.8-6.2,7.5l1,0C44.5-92.9,49.6-94.5,49.8-94.5z"/>
		<path class="st2" d="M45.4-12.7c0-8.6-7-15.6-15.6-15.6s-15.6,7-15.6,15.6c0,5.3,2.6,9.9,6.6,12.7h1.9c-4.5-2.5-7.5-7.3-7.5-12.7
			c0-8.1,6.6-14.6,14.6-14.6s14.6,6.6,14.6,14.6c0,5.5-3,10.2-7.5,12.7h1.9C42.8-2.8,45.4-7.5,45.4-12.7z"/>
		<path class="st2" d="M29.1-42h-0.1c-1.1,0-1.9,0.9-1.9,1.9v7.1c0,1.1,0.9,1.9,1.9,1.9h0.1c1.1,0,1.9-0.9,1.9-1.9v-7.1
			C31-41.1,30.1-42,29.1-42z"/>
		<path class="st2" d="M9-15H3c-1.1,0-2,0.9-2,2s0.9,2,2,2h6c1.1,0,2-0.9,2-2S10.1-15,9-15z"/>
		<path class="st2" d="M56.5-15h-6.4C49-15,48-13.8,48-12.7v0.3c0,1.1,1,2.4,2.1,2.4h6.4c1.1,0,2.5-1.4,2.5-2.4v-0.3
			C59-13.8,57.6-15,56.5-15z"/>
		<path class="st2" d="M14.4,0h1.2C15.2-0.1,14.8-0.1,14.4,0z"/>
		<path class="st2" d="M50.1-32.9l-0.2-0.2c-0.8-0.8-2-0.8-2.7,0l-4.6,4.6c-0.8,0.8-0.8,2,0,2.7l0.2,0.2c0.8,0.8,2,0.8,2.7,0
			l4.6-4.6C50.9-30.9,50.9-32.1,50.1-32.9z"/>
		<path class="st2" d="M43.6,0h1.2C44.4-0.1,44-0.1,43.6,0z"/>
		<path class="st2" d="M16.4-25.6l0.2-0.2c0.8-0.8,0.8-2,0-2.7L12-33.1c-0.8-0.8-2-0.8-2.7,0l-0.2,0.2c-0.8,0.8-0.8,2,0,2.7l4.6,4.6
			C14.4-24.8,15.6-24.8,16.4-25.6z"/>
	</g>
</pattern>
<rect y="1" class="st3" width="1400" height="980"/>
</svg>
