<?xml version="1.0" encoding="utf-8"?>
<!-- Generator: Adobe Illustrator 18.0.0, SVG Export Plug-In . SVG Version: 6.00 Build 0)  -->
<!DOCTYPE svg PUBLIC "-//W3C//DTD SVG 1.1//EN" "http://www.w3.org/Graphics/SVG/1.1/DTD/svg11.dtd">
<svg version="1.1" id="Layer_1" xmlns="http://www.w3.org/2000/svg" xmlns:xlink="http://www.w3.org/1999/xlink" x="0px" y="0px"
	 width="1400px" height="980px" viewBox="0 0 1400 980" enable-background="new 0 0 1400 980" xml:space="preserve">
<g>
	<defs>
		<rect id="SVGID_1_" width="1400" height="980"/>
	</defs>
	<clipPath id="SVGID_2_">
		<use xlink:href="#SVGID_1_"  overflow="visible"/>
	</clipPath>
	<rect clip-path="url(#SVGID_2_)" fill="#8FFFE4" width="1400" height="980"/>
	<path clip-path="url(#SVGID_2_)" fill="#F8FFDE" d="M-11.1,261.7c0.1-2.9,0.1-5.8,0.2-8.7c33-18.6,73.7-23.1,110-12
		c16.3,5,31.6,12.9,46.4,21.5c27.1,15.8,55.9,39.8,54,71.1c13-7.4,32.2-7.4,44,1.9c11.8,9.2,17.2,25.9,13.2,40.3
		c5.1-20,29.8-31.1,49.3-24.4c19.5,6.7,32,27.8,31.8,48.4c15.4-33.2,54.4-49.7,90.4-43.2c36,6.5,63.8,47.1,51.5,81.6
		c8.1-24.9,43-36.1,64.1-20.7c-9-47.1,14.2-98.6,55.3-123.1c41.2-24.5,97.5-20.4,134.6,9.9c11.6,9.5,21.5,21.2,34.4,28.9
		c10.6-23.6,48.8-23.3,67.4-5.3c18.5,18,21,47.6,13.7,72.4c17.9-21,57.3-15.7,69.1,9.3c28.1-37.6,93.8-36.5,120.8,1.9
		c-8.9-54.5,40.1-105.8,94.4-116.1c54.3-10.3,109.7,10.8,157.3,38.9c-2.7-11.4-3-20.9-3.2-32.6c-0.2-13.1,1.3-26.8,8.6-37.7
		c7.3-10.8,21.8-17.7,33.9-12.8c12.1,4.9,17.5,18.8,21,31.4c0.2-5.8,0.3-11.7,0.5-17.5c19.4-15.4,48.5-17.2,69.7-4.5
		s33.2,39.3,28.7,63.7c-3.1,16.9,4,31.2,3.3,48.3l-0.1,165c-2,0-4,0-6,0l-1485.8,0c0.2,15,0.5,30,0.7,45
		c4.5-81.7-29.4-160-44.2-240.4c-1-5.4-1.8-11.2,0.5-16.2c2-4.1,5.8-7,9.6-9.7c11.9-8.5,23.9-17.1,35.8-25.6
		C-24.7,282.5-11.5,276-11.1,261.7z"/>
	<path clip-path="url(#SVGID_2_)" fill="#E3FFE3" d="M-11.1,273.7c0.1-2.9,0.1-5.8,0.2-8.7c33-18.6,73.7-23.1,110-12
		c16.3,5,31.6,12.9,46.4,21.5c27.1,15.8,55.9,39.8,54,71.1c13-7.4,32.2-7.4,44,1.9c11.8,9.2,17.2,25.9,13.2,40.3
		c5.1-20,29.8-31.1,49.3-24.4c19.5,6.7,32,27.8,31.8,48.4c15.4-33.2,54.4-49.7,90.4-43.2c36,6.5,63.8,47.1,51.5,81.6
		c8.1-24.9,43-36.1,64.1-20.7c-9-47.1,14.2-98.6,55.3-123.1c41.2-24.5,97.5-20.4,134.6,9.9c11.6,9.5,21.5,21.2,34.4,28.9
		c10.6-23.6,48.8-23.3,67.4-5.3c18.5,18,21,47.6,13.7,72.4c17.9-21,57.3-15.7,69.1,9.3c28.1-37.6,93.8-36.5,120.8,1.9
		c-8.9-54.5,40.1-105.8,94.4-116.1c54.3-10.3,109.7,10.8,157.3,38.9c-2.7-11.4-3-20.9-3.2-32.6c-0.2-13.1,1.3-26.8,8.6-37.7
		c7.3-10.8,21.8-17.7,33.9-12.8c12.1,4.9,17.5,18.8,21,31.4c0.2-5.8,0.3-11.7,0.5-17.5c19.4-15.4,48.5-17.2,69.7-4.5
		c21.2,12.8,33.2,39.3,28.7,63.7c-3.1,16.9,4,31.2,3.3,48.3l-0.1,165c-2,0-4,0-6,0l-1485.8,0c0.2,15,0.5,30,0.7,45
		c4.5-81.7-29.4-160-44.2-240.4c-1-5.4-1.8-11.2,0.5-16.2c2-4.1,5.8-7,9.6-9.7c11.9-8.5,23.9-17.1,35.8-25.6
		C-24.7,294.5-11.5,288-11.1,273.7z"/>
	<polygon clip-path="url(#SVGID_2_)" fill="#55BAA6" points="-19,445 1450.2,445 1450.2,637 -119,637 	"/>
	<path clip-path="url(#SVGID_2_)" fill="#F2D794" d="M-15,543.3c0,0,146,50.2,316,39C471,571.2,596.5,563,596.5,563l254.7-3.5
		c0,0,143.8,20.9,193.8,19.1c50-1.9,108-37.2,184-35.3c76,1.9,150-1.9,180-18.6c30-16.7,18,40.9,18,40.9s-10,432.9-16,436.6
		C1405,1006-29,1019-29,1019L-15,543.3z"/>
	<ellipse clip-path="url(#SVGID_2_)" fill="#76E2CE" cx="157.8" cy="527.6" rx="146.2" ry="3"/>
	<ellipse clip-path="url(#SVGID_2_)" fill="#76E2CE" cx="354.3" cy="559.1" rx="98.2" ry="2"/>
	<ellipse clip-path="url(#SVGID_2_)" fill="#76E2CE" cx="238.8" cy="476.6" rx="98.2" ry="2"/>
	<ellipse clip-path="url(#SVGID_2_)" fill="#76E2CE" cx="675.3" cy="487.1" rx="98.2" ry="2"/>
	<ellipse clip-path="url(#SVGID_2_)" fill="#76E2CE" cx="466.8" cy="526.1" rx="66.7" ry="1.4"/>
	<ellipse clip-path="url(#SVGID_2_)" fill="#76E2CE" cx="1045.8" cy="518.6" rx="117.7" ry="1.4"/>
	<ellipse clip-path="url(#SVGID_2_)" fill="#76E2CE" cx="988.8" cy="477.4" rx="117.7" ry="1.8"/>
	<ellipse clip-path="url(#SVGID_2_)" fill="#76E2CE" cx="764.5" cy="535.9" rx="67.5" ry="1.8"/>
	<ellipse clip-path="url(#SVGID_2_)" fill="#76E2CE" cx="1279" cy="478.9" rx="67.5" ry="1.8"/>
	<ellipse clip-path="url(#SVGID_2_)" fill="#76E2CE" cx="1145.5" cy="459.4" rx="67.5" ry="1.8"/>
	<circle clip-path="url(#SVGID_2_)" fill="#76E2CE" cx="316" cy="527.6" r="4.7"/>
	<circle clip-path="url(#SVGID_2_)" fill="#76E2CE" cx="233.6" cy="554.6" r="4.7"/>
	<circle clip-path="url(#SVGID_2_)" fill="#76E2CE" cx="283.1" cy="545.6" r="5.9"/>
	<circle clip-path="url(#SVGID_2_)" fill="#76E2CE" cx="313" cy="541.1" r="3.3"/>
	<circle clip-path="url(#SVGID_2_)" fill="#76E2CE" cx="376" cy="493.1" r="3.3"/>
	<circle clip-path="url(#SVGID_2_)" fill="#76E2CE" cx="187.1" cy="509.6" r="3.3"/>
	<circle clip-path="url(#SVGID_2_)" fill="#76E2CE" cx="68.3" cy="463.1" r="3.3"/>
	<circle clip-path="url(#SVGID_2_)" fill="#76E2CE" cx="102.3" cy="485.3" r="2.7"/>
	<circle clip-path="url(#SVGID_2_)" fill="#76E2CE" cx="137.6" cy="458.6" r="2.7"/>
	<circle clip-path="url(#SVGID_2_)" fill="#76E2CE" cx="340" cy="538.5" r="2.7"/>
	<circle clip-path="url(#SVGID_2_)" fill="#76E2CE" cx="180.7" cy="554.6" r="2.7"/>
	<circle clip-path="url(#SVGID_2_)" fill="#76E2CE" cx="125.6" cy="485.3" r="2.7"/>
	<circle clip-path="url(#SVGID_2_)" fill="#76E2CE" cx="782.5" cy="471" r="2.7"/>
	<circle clip-path="url(#SVGID_2_)" fill="#76E2CE" cx="805" cy="495" r="2.7"/>
	<circle clip-path="url(#SVGID_2_)" fill="#76E2CE" cx="246.7" cy="485.6" r="2.7"/>
	<circle clip-path="url(#SVGID_2_)" fill="#76E2CE" cx="544.4" cy="484.1" r="2.7"/>
	<circle clip-path="url(#SVGID_2_)" fill="#76E2CE" cx="1015" cy="463.5" r="2.7"/>
	<circle clip-path="url(#SVGID_2_)" fill="#76E2CE" cx="1370.2" cy="464.6" r="2.7"/>
	<circle clip-path="url(#SVGID_2_)" fill="#76E2CE" cx="1330" cy="491.6" r="6.4"/>
	<circle clip-path="url(#SVGID_2_)" fill="#76E2CE" cx="304.1" cy="488.3" r="3.3"/>
	<circle clip-path="url(#SVGID_2_)" fill="#76E2CE" cx="416.5" cy="473.3" r="3.3"/>
	<circle clip-path="url(#SVGID_2_)" fill="#76E2CE" cx="512.2" cy="550.1" r="3.3"/>
	<circle clip-path="url(#SVGID_2_)" fill="#76E2CE" cx="753.7" cy="503.6" r="3.3"/>
	<circle clip-path="url(#SVGID_2_)" fill="#76E2CE" cx="926.2" cy="548.6" r="3.3"/>
	<circle clip-path="url(#SVGID_2_)" fill="#76E2CE" cx="922" cy="530.6" r="3.3"/>
	<circle clip-path="url(#SVGID_2_)" fill="#76E2CE" cx="1177" cy="487.1" r="3.3"/>
	<circle clip-path="url(#SVGID_2_)" fill="#76E2CE" cx="1238.2" cy="506.6" r="3.3"/>
	<circle clip-path="url(#SVGID_2_)" fill="#76E2CE" cx="1049.2" cy="464.6" r="3.3"/>
	<circle clip-path="url(#SVGID_2_)" fill="#76E2CE" cx="96.6" cy="543.7" r="3.3"/>
	<circle clip-path="url(#SVGID_2_)" fill="#76E2CE" cx="347.3" cy="467.6" r="3.3"/>
	<circle clip-path="url(#SVGID_2_)" fill="#76E2CE" cx="146.3" cy="502.1" r="4.9"/>
	<circle clip-path="url(#SVGID_2_)" fill="#76E2CE" cx="1297" cy="505.1" r="5.8"/>
	<circle clip-path="url(#SVGID_2_)" fill="#76E2CE" cx="928" cy="511.4" r="3.3"/>
	<circle clip-path="url(#SVGID_2_)" fill="#76E2CE" cx="889" cy="527.9" r="3.3"/>
	<circle clip-path="url(#SVGID_2_)" fill="#76E2CE" cx="1000" cy="535.4" r="5.4"/>
	<path clip-path="url(#SVGID_2_)" fill="#DDBD76" d="M378.8,781.5c24.5,6.1,50,7.7,75.1,4.9c-26.2,1.4-52.4,4.8-78.1,10.3
		c25.9,2.7,52.1,3.2,78.1,1.5c-25,1.2-50,2.4-75,3.6c24,1.1,48,2.2,72,3.3c-27.1-0.4-54.2,1.5-81,5.5c26,1.3,52.2,0.5,78.1-2.5
		c-22.8,3.9-45.9,5.8-69.1,5.7c22,0.2,44,0.3,66.1,0.5c-23,1.9-46,3.9-69,5.8c18-1.4,36.1-0.8,54,1.6c-21,1.3-42,2.5-63.1,3.8
		c23.1,0.3,46.1,0.6,69.2,0.9c-26.6,6-54.1,7.9-81.3,5.4c22.4,6.4,46,8.4,69.1,5.8c-32,0-64,0.1-96,0.1c33,0,66,0,99,0
		c-30,0.1-60,0.3-90,0.4c31.9,3.1,64,3.9,96,2.5c-36-1.2-72.2,0.1-108,3.9c30.9,2.7,62,3.2,93,1.5c-32,2-64,4.1-96,6.1
		c32,0.2,64,0.3,96,0.5c-31,0.2-62.1,0.3-93.1,0.5c28.5,6.3,58,8.1,87.1,5.3c-25,0.1-50,0.1-75,0.2c29,0.2,58,0.4,87,0.6
		c-31.1,1.6-62.2,3.2-93.3,4.9c25.8,4.1,52.1,5.3,78.2,3.4c-26,0.1-52,0.1-78,0.2c24.7,4.9,49.9,6.9,75,5.9c-27,0.2-54,0.5-81,0.7
		c25,1.1,50,2.3,75.1,3.4c-21.9,2.1-44,2.8-66,2c22,1.2,44,2.4,66,3.6c-20.9,2.6-42,3.3-63,2.1c21-0.6,42.1,0.6,63,3.5
		c-18-1-36.1-2.1-54.1-3.1c13,3.6,25.9,7.2,38.9,10.8c-13.9,0.4-27.9,0.9-41.8,1.3c16,2,32,4,48,6c-17-0.1-34-0.1-51-0.2
		c11,2.3,32.2,13,43.2,15.3c-17,1.6-44.3-5.2-61.3-3.6c16.1,1.4,45.3,12.2,61.3,13.6c-16.9,2.2-41,5.2-58,4c12.9,2.9,25.1,8.1,38,11
		c-38.9-3.8-59-5-103-1c46.5,9.8,77.6,14.8,124.6,7.2c-43.3,2.5-86.7,5-130,7.5c27.4,4.2,54.7,8.3,82.1,12.5c-29-2.3-58-4.6-86.9-7
		c21.7,4.9,43.8,8,66,9.2c-26.2-1.7-52.5-0.9-78.5,2.4c17.1,12,39.5,12.6,60.3,12.7c46.3,0.3,92.6,0.5,138.8,0.8
		c41.3-82.5,75.7-168.4,102.9-256.5c12.2-39.6,23.5-80.8,48.8-113.6c12.2-15.9,28.5-35.3,19.5-53.2c-20.1,2.3-40.3,4.5-60.4,6.8
		c8,0.1,16,0.1,24,0.2c-13.2,0.5-26.3,2.6-39,6.2c7.1-1.5,14.6-0.6,21.1,2.3c-12.1,1.2-24.1,2.4-36.2,3.6c14,0,28-0.1,42-0.1
		c-7,0.3-14.1,0.6-21.1,1c13,1,26.1,2,39.1,3c-18,2.7-36.1,5.3-54.1,8c15,0,30-0.1,45-0.1c-33.3,2.8-66.4,8.1-99,15.8
		c34-3.3,68-6.6,101.9-9.9c-22.1-1.7-44.5,0.3-66,5.9c19,0,38,0,57,0c-17.1-1.4-34.3-0.5-51.1,2.9c12.7,3.3,26,4.3,39.1,3
		c-15-1.7-30.4-0.6-45,3.3c18-1.3,36-2.6,53.9-4c-20,3.1-40,6.2-60,9.2c16,0.1,32,0.2,48,0.3c-21-1.3-42.2,0.1-62.9,3.9
		c25-2.1,50-4.3,75-6.4c-25,2.1-50.1,4.3-75.1,6.4c19,0.9,38.1,1.8,57.1,2.7c-23,2.4-46,4.7-68.9,7.1c20-0.6,40-1.2,59.9-1.7
		c-22,2.9-44,5.8-66,8.7c23,0,46,0,69,0c-20.6,5.3-41.8,8.4-63.1,9c17.7,3.7,36.1,4.4,54,2.1c-20,1.7-40.1,3.3-60.1,5
		c21.1,0.8,42.1,1.7,63.2,2.5c-21,4-42,7.9-63.1,11.9c18.8,2.8,38,3.5,57,2.1c-17.8,3.3-35.9,5.6-54,6.8c13,2.7,26,5.5,39,8.2
		c-16,1.4-32,2.7-48,4.1c15,2.3,30,4.7,45,7c-19,0.6-38,1.2-57.1,1.8c16.4,5.7,34,7.5,51.2,5.3c-16,1.9-32,3.8-48,5.7
		c14.1-1.6,28.6-0.4,42.2,3.5c-18.1,2.1-36.3,4.2-54.4,6.3c14.2,6.5,29.6,10.3,45.2,11.3c-17.1-1.4-34.4-0.4-51.2,3
		c14.6,4.7,29.8,7.7,45.2,8.9c-14,0-28,0.1-42,0.1c11.5,4.5,23.7,7.5,36,8.8c-23.1-1-46.3,0.5-69.1,4.3c21.8,4.3,43.9,6.5,66.1,6.6
		c-20,1.2-40,2.4-60,3.5c23,0.3,46,0.7,69.1,1c-23,1.2-46,2.4-69,3.6c16,1.1,32,2.2,48,3.3C430.9,779.9,404.9,780.7,378.8,781.5z"/>
	<path clip-path="url(#SVGID_2_)" fill="#DDBD76" d="M1024.1,775.7c-24.5,6.2-50,8-75.1,5c26.2,1.4,52.4,5,78.1,10.6
		c-25.9,2.7-52.1,3.3-78.1,1.6c25,1.2,50,2.4,75,3.7c-24,1.1-48,2.2-72,3.4c27.1-0.4,54.2,1.5,81,5.7c-26,1.4-52.2,0.5-78.1-2.5
		c22.8,4,45.9,6,69.1,5.9c-22,0.2-44,0.3-66.1,0.5c23,2,46,4,69,6c-18-1.4-36.1-0.8-54,1.7c21,1.3,42,2.6,63.1,3.9
		c-23.1,0.3-46.1,0.6-69.2,0.9c26.6,6.2,54.1,8.1,81.3,5.6c-22.4,6.6-46,8.6-69.1,5.9c32,0,64,0.1,96,0.1c-33,0-66,0-99,0
		c30,0.1,60,0.3,90,0.4c-31.9,3.2-64,4-96,2.6c36-1.2,72.2,0.1,108,4.1c-30.9,2.8-62,3.3-93,1.6c32,2.1,64,4.2,96,6.3
		c-32,0.2-64,0.3-96,0.5c31,0.2,62.1,0.3,93.1,0.5c-28.5,6.5-58,8.3-87.1,5.5c25,0.1,50,0.1,75,0.2c-29,0.2-58,0.4-87,0.6
		c31.1,1.7,62.2,3.3,93.3,5c-25.8,4.2-52.1,5.4-78.2,3.5c26,0.1,52,0.2,78,0.2c-24.7,5-49.9,7.1-75,6.1c27,0.2,54,0.5,81,0.7
		c-25,1.2-50,2.3-75.1,3.5c21.9,2.1,44,2.8,66,2.1c-22,1.2-44,2.4-66,3.7c20.9,2.7,42,3.4,63,2.2c-21-0.6-42.1,0.6-63,3.5
		c18-1.1,36.1-2.1,54.1-3.2c-13,3.7-25.9,7.4-38.9,11.1c13.9,0.4,27.9,0.9,41.8,1.3c-16,2.1-32,4.1-48,6.2c17-0.1,34-0.1,51-0.2
		c-11,2.4-32.2,13.4-43.2,15.7c17,1.6,44.3-5.4,61.3-3.7c-16.1,1.5-45.3,12.5-61.3,14c16.9,2.2,41,5.4,58,4.1
		c-12.9,3-25.1,8.3-38,11.3c38.9-3.9,59-5.1,103-1c-46.6,10.1-77.6,15.2-124.6,7.5c43.3,2.6,86.7,5.1,130,7.7
		c-27.4,4.3-54.7,8.6-82.1,12.8c29-2.4,58-4.8,86.9-7.2c-21.7,5-43.8,8.2-66,9.4c26.2-1.7,52.5-0.9,78.5,2.4
		c-17.1,12.3-39.5,12.9-60.3,13c-46.3,0.3-92.6,0.5-138.8,0.8c-41.3-84.8-75.7-173.2-102.9-263.8c-12.2-40.8-23.5-83.1-48.8-116.9
		c-12.2-16.3-28.5-36.3-19.5-54.7c20.1,2.3,40.3,4.6,60.4,7c-8,0.1-16,0.1-24,0.2c13.2,0.5,26.3,2.6,39,6.4
		c-7.1-1.5-14.6-0.7-21.1,2.4c12.1,1.2,24.1,2.4,36.2,3.7c-14,0-28-0.1-42-0.1c7,0.3,14.1,0.7,21.1,1c-13,1-26.1,2-39.1,3.1
		c18,2.8,36.1,5.5,54.1,8.3c-15,0-30-0.1-45-0.1c33.3,2.9,66.4,8.3,99,16.3c-34-3.4-68-6.8-101.9-10.2c22.1-1.7,44.5,0.3,66,6.1
		c-19,0-38,0-57,0c17.1-1.5,34.3-0.5,51.1,3c-12.7,3.4-26,4.5-39.1,3.1c15-1.7,30.4-0.6,45,3.4c-18-1.4-36-2.7-53.9-4.1
		c20,3.2,40,6.3,60,9.5c-16,0.1-32,0.2-48,0.3c21-1.3,42.2,0.1,62.9,4c-25-2.2-50-4.4-75-6.6c25,2.2,50.1,4.4,75.1,6.6
		c-19,0.9-38.1,1.9-57.1,2.8c23,2.4,46,4.9,68.9,7.3c-20-0.6-40-1.2-59.9-1.8c22,3,44,6,66,9c-23,0-46,0-69,0
		c20.6,5.5,41.8,8.6,63.1,9.3c-17.7,3.8-36.1,4.5-54,2.2c20,1.7,40.1,3.4,60.1,5.1c-21.1,0.9-42.1,1.7-63.2,2.6
		c21,4.1,42,8.2,63.1,12.2c-18.8,2.9-38,3.6-57,2.1c17.8,3.4,35.9,5.7,54,6.9c-13,2.8-26,5.7-39,8.5c16,1.4,32,2.8,48,4.2
		c-15,2.4-30,4.8-45,7.2c19,0.6,38,1.2,57.1,1.8c-16.4,5.9-34,7.8-51.2,5.5c16,2,32,3.9,48,5.9c-14.1-1.6-28.6-0.4-42.2,3.6
		c18.1,2.2,36.3,4.4,54.4,6.5c-14.2,6.7-29.6,10.6-45.2,11.6c17.1-1.5,34.4-0.4,51.2,3c-14.6,4.8-29.8,7.9-45.2,9.2
		c14,0,28,0.1,42,0.1c-11.5,4.7-23.7,7.7-36,9.1c23.1-1,46.3,0.5,69.1,4.4c-21.8,4.4-43.9,6.7-66.1,6.8c20,1.2,40,2.4,60,3.6
		c-23,0.3-46,0.7-69.1,1c23,1.2,46,2.5,69,3.7c-16,1.1-32,2.2-48,3.3C972,774,998,774.8,1024.1,775.7z"/>
	<path clip-path="url(#SVGID_2_)" fill="#8E6E40" d="M596.3,565.6c0,0-10.9-278.3-14.7-290.3c-3.8-12-1.9-126-1.9-126h-9.4
		c0,0,0,105,3.8,132c3.8,27,5.6,75,5.6,99c0,24,6.6,187.3,6.6,187.3L596.3,565.6z"/>
	<polygon clip-path="url(#SVGID_2_)" fill="#8E6E40" points="851.2,564.6 853.7,286.3 851.7,254.3 851,178.3 854.3,152.3 
		866.3,152.3 862.3,192.3 866.3,236.3 873,381 871,477.4 867,566.3 	"/>
	<path clip-path="url(#SVGID_2_)" fill="#8E6E40" d="M567,149h19.3l-0.7-7.3l-7.3,1.3c0,0,4-21.3-0.7-25.3c-4.7-4-9.3,0-8.7,10.7
		c0.7,10.7,2,14.7,2,14.7l-5.3,1.3L567,149z"/>
	<path clip-path="url(#SVGID_2_)" fill="#8E6E40" d="M851,153.7h19.3l-0.7-7.3l-7.3,1.3c0,0,4-21.3-0.7-25.3c-4.7-4-9.3,0-8.7,10.7
		s2,14.7,2,14.7l-5.3,1.3L851,153.7z"/>
	<g clip-path="url(#SVGID_2_)">
		<polygon fill="#7BD1EF" points="491.5,203 463,238 526.5,223.5 548,197.5 		"/>
		<polygon fill="#77C5E0" points="478,207 481.5,216 531.5,219.5 536.5,210 516.5,205 		"/>
		<polygon fill="#97DFFF" points="570.4,149.4 478,207 524.5,215 543,208.5 568,203.5 		"/>
		<polygon fill="#60BFF4" points="579.7,149.4 568.5,148.5 568,203.5 580.5,204 		"/>
	</g>
	<g clip-path="url(#SVGID_2_)">
		<polygon fill="#6AB2CC" points="853.5,154.5 792.5,176 792.5,229 855,232.5 		"/>
		<polygon fill="#4B9AAF" points="792.5,176 784,190 784,237.5 797,227 		"/>
		<polygon fill="#5FBFD6" points="784,190 721.5,211.5 784,237.5 		"/>
		<polygon fill="#437991" points="853.5,154.5 867.5,154.5 862.3,192.3 869,235.5 849.5,235.5 848.5,174.5 		"/>
	</g>
	<g clip-path="url(#SVGID_2_)">
		<path fill="#D7F5FF" d="M571,234l8,3.2l13.5,8c0,0,57.5,21.9,84,21.9s148.5-9.6,157-16.3c8.5-6.8,17.5-10.4,17.5-10.4l16-1.2v4.4
			l-15,2.4l-9,13.6c0,0-9,38.7-5.5,57c3.5,18.3,9.5,34.3,9.5,34.3l6.5,5.2l20,2v7.2l-20.5-2.8l-12.5-3.6c0,0-108,16-168.5,9.6
			c-60.5-6.4-75-16.7-75-16.7l-18.5-3.6l0.5-6l8.5,1.2l15.5-2c0,0,7-12,5.5-21.9c-1.5-10-26.5-69-26.5-69l-2-3.6l-8.5-4.8L571,234z"
			/>
		<path fill="#F0FCFF" d="M819.1,313.2c-2.7-16.5,16.8-30.5,14.2-47c-21.1-5.3-42,0.2-62.4,7.9c-35,13.3-75,12.8-109.7-1.4
			c-19.4-7.9-38.5-13.3-59.3-11.3c-3.9,8.3,0.3,18.1,5.5,25.6c5.2,7.6,11.6,15,12.4,24.2c1,11.8-7.1,26.1,1.5,34.3
			c2.1,2,4.8,3.1,7.5,4.1c53.4,20.1,112.5,15.3,169.2,8.8c13-1.5,29.5-6.5,30.3-19.6C828.7,329.8,820.6,322.3,819.1,313.2z"/>
		<g>
			<path fill="#6AB2CC" d="M764.7,334.6c-4,7-11.8,10.6-19.1,6.2c-7.4-4.4-9.6-13.9-9.5-21.9c0.1-4.7,1.1-9.3,2.2-13.8
				c0.6-2.3,1.3-4.5,2-6.8c0.6-2,1-4.2,2.5-5.7c2.5-2.7,7.7-1.9,10.7-0.6c3.3,1.4,6.1,4.1,7.5,7.5c1.1,2.8,5.7,1.6,4.5-1.2
				c-3.5-8.5-13.5-14.6-22.6-11c-5.3,2.1-6.3,7.6-7.8,12.5c-1.8,6-3.3,12.2-3.6,18.5c-0.1,1.3-0.1,2.7,0,4c-0.1-0.9-0.2-1.7-0.3-2.6
				c-0.8-6-1.8-12.2-3.6-18c-1.4-4.7-4-9.3-8.6-11.4c-4.4-2-9.5-0.8-13.3,1.9c-4.6,3.3-6.9,8.5-7.9,13.9c-0.9,5.2-0.8,10.5-0.7,15.8
				c-1.1,0.2-2.2,0.4-3.3,0.6c-3,0.6-1.7,5.1,1.2,4.5c0.7-0.1,1.4-0.2,2-0.4c0,4.3,0,8.6-0.1,13c-0.7-1.7-3.2-2.5-4.1-0.4
				c-2.6,5.5-9.7,5.7-14,2.2c-5.5-4.4-6.4-12-6.2-18.6c0-0.8,0.1-1.7,0.1-2.5c5.6-0.1,11.2-0.4,16.8-0.9c3-0.3,3-5,0-4.7
				c-5.4,0.5-10.9,0.8-16.3,0.9c0.6-4.6,1.8-9.1,4.2-13.1c3.1-5.4,9.6-9.3,15.8-7.7c2.9,0.8,4.2-3.8,1.2-4.5c-7.6-2-15.4,1.8-19.9,8
				c-3.7,5-5.3,11.2-6.1,17.4c-1.2,0-2.4,0-3.6-0.1c-3-0.1-3,4.6,0,4.7c1.1,0,2.1,0,3.2,0.1c-0.1,1.4-0.1,2.8-0.1,4.2
				c0,2.1,0.1,4.2,0.5,6.3c-2.6-4.1-7.1-6.8-11.4-8.9c-0.2-0.1-0.3-0.2-0.5-0.2c1.3-1,2.5-2.2,3.5-3.5c3.9-5,4.6-11.3,3.2-17.4
				c-1.3-5.8-5.1-12.1-10.5-15c-3.4-1.9-7.5-1.4-10.2,0.9c-1.3-0.4-3.1,0.3-3.3,2.1c-0.9,12.4-2.4,25-0.6,37.3
				c1.5,9.9,6.7,22.9,17.9,24.5c4.5,0.7,9.6-0.8,12.3-4.7c1.5-2.3,2.1-4.8,2-7.4c1.6,3.2,4,5.9,7.3,7.9c6.3,3.7,15.5,1.8,18.7-5
				c0-0.1,0-0.1,0.1-0.2c0,1.3,0,2.7,0,4c0,3,4.7,3,4.7,0c0-6.5,0-13,0.1-19.5c8.3-1.4,16.7-2.5,25.1-3.4c0.3,2.6,0.6,5.1,0.8,7.7
				c0.2,2.7,0.3,5.4,0.4,8.1c0,1.2,0,2.4,0.1,3.6c0,0.6,0,1.2,0,1.8c0,0.7-0.3,1.5,0.1,1.7c-1.3,0.7-2,2.4-0.6,3.7
				c1.7,1.6,3.7,0.8,4.8-1.1c0.6-1,0.4-2.3,0.5-3.4c0-1.8,0-3.6,0-5.4c-0.1-4.3-0.3-8.5-0.7-12.8c1.3,7.7,5.1,14.9,11.9,19
				c9.3,5.5,19.9,0.4,24.9-8.3C770.3,334.4,766.2,332,764.7,334.6z M643.6,293.6c0.5-0.4,0.9-1,1-1.8c0.2-1.8,2.1-2.5,3.7-2.6
				c2.2-0.1,4.2,1.9,5.5,3.3c2.9,3.1,4.8,7.5,5.3,11.7c0.8,6.3-2.6,12.7-8.1,15.1c-2.7-0.7-5.4-0.6-7.5,1.6
				c-0.3,0.4-0.5,0.7-0.6,1.1c-0.1-1.4-0.2-2.7-0.3-4C642.2,310,643,301.8,643.6,293.6z M661.7,345.7c-3.8,1.3-7.7-0.2-10.5-2.7
				c-5.2-4.7-7.3-12.3-8.1-19.4c0.4,0.8,1.1,1.4,2.1,1.5c2.2,0.2,4.3-0.1,6.3-0.7c2.3,0.9,4.6,2.4,5.8,3c3.8,2,7.1,4.8,8.5,9
				C667,340.2,665.6,344.3,661.7,345.7z M701.7,321c0-2.4,0.1-4.7,0.1-7.1c0.2-7.9,2.2-19.5,12.2-20c8.9-0.4,10.4,13.8,11.5,19.9
				c0.2,1.3,0.5,2.7,0.7,4C718,318.6,709.8,319.7,701.7,321z"/>
			<path fill="#6AB2CC" d="M804.2,313.8c-2,0.1-3.9,0.2-5.9,0.4c0.4-9.6,1-19.2,1.4-28.7c0.1-3-4.6-3-4.7,0
				c-0.4,9.7-1,19.4-1.4,29.1c-5.5,0.5-10.9,1.1-16.4,1.9c-1.1-9.4-2.7-18.8-4.6-28.2c-0.6-3-5.1-1.7-4.5,1.2
				c1.9,9.1,3.4,18.4,4.5,27.6c-1.5,0.2-2.9,0.5-4.4,0.7c-3,0.5-1.7,5,1.2,4.5c1.2-0.2,2.4-0.4,3.6-0.6c0.7,6.4,1.2,12.8,1.5,19.2
				c0.1,3,4.8,3,4.7,0c-0.3-6.7-0.8-13.3-1.5-19.9c5.2-0.7,10.4-1.4,15.7-1.8c-0.3,8.4-0.4,16.8,0,25.2c0.1,3,4.8,3,4.7,0
				c-0.4-8.5-0.3-17.1,0-25.6c2-0.2,4-0.3,6-0.4C807.2,318.4,807.2,313.7,804.2,313.8z"/>
		</g>
	</g>
	<g clip-path="url(#SVGID_2_)">
		<path fill="#27694E" d="M61.3,750.3c35.3,0.5,64.7,54.3,66.9,58.3c3.1-19.6,5.7-40.2,7.7-61.1c-15.5-25.9-64.9-74.9-64.9-74.9
			c33.7,0.5,62.1,49.6,66.4,57.5c1.2-16,2-32.1,2.3-47.9c-17.7-26.7-62.4-70.8-62.4-70.8c28.2,0.4,52.7,34.9,62.5,50.7
			c-0.2-18-1.1-35.3-3-51.6C115.3,591,80.6,567,80.6,567c19.8-3.2,40.8,13.4,53.8,26.3c-1.9-12-4.4-23.1-7.6-33.3
			C111.5,546.2,88.1,530,88.1,530c11.5-1.8,23.7,5.7,32.8,13.6c-8.2-19-19.5-32.7-34.4-38.9c-16.4-0.1-32.3,8.4-47.4,23
			c11.6-3.9,26.5-6.6,36.9-0.2c0,0-29.1,6.1-48.6,12.9c-6.8,8.2-13.4,17.5-19.8,27.8c16.9-6.9,43.5-14.6,60.9-3.7
			c0,0-42.4,8.9-69.7,18.6c-8.1,14.4-15.8,30.2-23,46.9c14.4-10.4,51.6-34.2,78.5-23.3c0,0-60,24-86.2,41.7
			c-5.9,14.8-11.5,30.1-16.7,45.5c0.2-0.3,0.3-0.5,0.3-0.5s50.5-41.6,84.5-27.8c0,0-66.6,26.6-90.1,44.4
			c-6.4,20.5-12.1,40.9-17,60.5c0.7-1.2,1.1-1.9,1.1-1.9s50.5-41.6,84.5-27.8c0,0-64.5,25.7-88.9,43.6
			c-6.2,26.9-10.6,51.7-12.9,72.1c2.5-4.3,4.4-7.5,4.4-7.5s50.5-41.6,84.5-27.8c0,0-66.1,26.4-89.8,44.3c-1.4,16.2-1.4,28.9,0.4,37
			c1.4,6.3,3.3,12.4,5.6,18.2c12.2-9.1,52.3-36.6,80.9-25c0,0-47.3,18.9-76.2,35.5c21.8,43.6,63.2,68.9,63.2,68.9
			s48.3-7.2,85.5-39.1c-20.2-26.5-56-61.9-56-61.9c30.4,0.5,56.3,40.2,64.4,54c4.2-4.3,8.2-9,11.9-14.1c4.8-6.8,10-18.8,15-34.6
			c-15.5-25.9-65-74.9-65-74.9c36.7,0.5,67,58.6,67,58.6s0.4,2.8,0.9,6.7c5.7-19.6,11.2-43.8,15.9-70.5
			C109.4,797.9,61.3,750.3,61.3,750.3z"/>
	</g>
	<g clip-path="url(#SVGID_2_)">
		<path fill="#1E563E" d="M182.5,768.7c26.4,15,29.7,64.9,29.9,68.7c9.2-12.5,18.4-25.8,27.3-39.7c-2.6-24.6-22.7-79.5-22.7-79.5
			c25.3,14.3,29.4,60.6,29.9,67.9c6.6-10.8,12.8-21.7,18.6-32.7c-4-26.1-22.1-75.6-22.1-75.6c21.1,12,27.5,46.3,29.3,61.5
			c6.2-12.7,11.5-25.3,15.9-37.5c-9.3-22.6-27-53.9-27-53.9c16,6,26.1,26.4,31.3,40.7c2.7-9.2,4.8-18.1,6-26.5
			c-6.8-16-18.7-37.1-18.7-37.1c9.4,3.5,15.8,13.8,19.9,23.1c0.5-16.7-3.2-31.1-12.2-41.6c-12.3-6.9-27.3-7.5-43.9-3.5
			c10.2,2.1,22.3,6.3,27.8,15.1c0,0-24-7.8-41.2-11.1c-8,2.9-16.3,6.7-24.7,11.3c15.1,2.1,37.9,7.8,47.2,22.7c0,0-35-11.3-59.1-15.8
			c-11.2,6.8-22.5,14.7-33.8,23.4c14.5-1.3,50.9-2.6,67.4,16.2c0,0-53.7-8.1-79.6-6.5c-9.7,8-19.3,16.4-28.6,25.1
			c0.3-0.1,0.4-0.2,0.4-0.2s52.7-8.3,73.5,15.5c0,0-59.5-8.9-83.5-6.1c-12.1,11.7-23.5,23.7-34,35.5c0.9-0.5,1.5-0.9,1.5-0.9
			s52.7-8.3,73.5,15.5c0,0-57.7-8.6-82.4-6.2c-14.1,16.3-26.1,31.9-35.1,45.3c3.4-2,6-3.5,6-3.5s52.7-8.3,73.5,15.5
			c0,0-59.1-8.9-83.3-6.1c-6.8,10.8-11.2,19.8-12.7,26.1c-1.2,5-1.8,10.1-2.1,15.1c12.4-1.4,52.3-4,69.8,16c0,0-42.3-6.3-69.9-6.6
			c1.1,39.6,23.5,74.6,23.5,74.6s39,14.9,78.2,7.9c-5.9-27-20.4-66.6-20.4-66.6c22.7,12.9,28.3,51.6,29.6,64.6
			c4.7-1.3,9.4-2.9,13.9-5c6-2.8,14.1-9.1,23.5-18.1c-2.6-24.6-22.7-79.5-22.7-79.5c27.5,15.6,29.9,68.9,29.9,68.9s-0.7,2.1-1.7,5.1
			c11.2-11.4,23.8-26.2,36.7-43C202,822.1,182.5,768.7,182.5,768.7z"/>
	</g>
	<g clip-path="url(#SVGID_2_)">
		<path fill="#485B27" d="M304.6,976.5c6.1-7.4,12.7-16.1,19.1-26l-29.8-9l34.8,1c0.8-1.4,1.7-2.9,2.5-4.4L285,925.7l59.4-16.1
			c5.8-15.9,9.5-33,9.1-50.7l-23.9,3.6l23.3-12.3c0-0.5-0.1-1-0.1-1.5c-1.2-11-5.6-21-12.5-29.8l-53.3,53.5l44.2-63.2
			c-16.5-15.1-40.7-25.6-67.3-30.4l-15.9,32.9l4.3-34.6c-7.2-0.8-14.5-1.3-21.8-1.2l0.8,57.3L220,776.1
			c-20.9,1.2-41.4,6.1-59.1,15.1l3,20.5l-9.2-17.1c-4.8,2.8-9.4,5.9-13.6,9.4l33,46.4l-40.8-39.4c-6.7,6.8-12.5,14.6-16.9,23.5
			c-2.2,4.4-4.1,8.7-5.8,12.9c17.4,11.9,50.4,34.6,52.1,35.9c1.7,1.3-38-14.1-56.8-21.5c-0.7,2.5-1.2,4.9-1.7,7.4l6.9,9.8l-8.1-3.1
			c-2.3,15.8-1,30.3,2.2,43.2l33.8,11c0,0-16.1-0.9-31.1-1.7c12.8,37.3,41.2,59.2,41.2,59.2l131.9,14.2c0,0,8-7.2,18.8-19.5
			l-23.3-11.6L304.6,976.5z"/>
		<path fill="#6B8442" d="M-46,959.7c0,0-83.8-118.8,29.2-207.2s242.9,48.9,242.9,48.9S301.7,894,195,970.3s-99.6,55.7-99.6,55.7
			L-46,959.7z"/>
		<path fill="#566D32" d="M134.7,1007.8c9.8-6,20.7-13.3,31.7-22l-30.2-21.8l39,14.6c1.5-1.3,3-2.6,4.5-3.9l-47.5-31.9l73.5,5
			c12.8-15.7,23.6-33.7,30.1-53.8l-28.4-5.2l31.2-4.8c0.1-0.6,0.3-1.1,0.4-1.7c2.9-13,1.8-26-2.5-38.6l-81.2,39.7l74.7-54.3
			c-12.8-23.5-36.1-44.8-64.3-60.6l-30.8,31l18.3-37.5c-7.8-3.7-15.9-7.1-24.2-9.9l-21.4,65.1L117,748c-24.1-6.7-49.2-9.2-72.8-6
			l-4.5,24.4l-3.8-23c-6.5,1.3-12.9,3.1-19.1,5.3L36.1,814L5.3,753.6c-10.2,5-19.8,11.6-28.3,20c-4.2,4.1-8,8.2-11.5,12.3
			c15,20.2,43.6,58.8,44.9,60.9c1.4,2.2-37.5-30.8-55.9-46.5c-1.7,2.6-3.3,5.1-4.8,7.7l4,13.8l-8-6.6c-8.7,17-13,33.9-14.3,49.8
			l34,25.7c0,0-17.9-7.3-34.5-14c0,47.3,23.5,83.1,23.5,83.1l143.7,67.5c0,0,11.9-5,28.9-14.8l-21.8-22.2L134.7,1007.8z"/>
		<path fill="#6D8740" d="M293.9,1010.6c4.7-7.3,9.8-15.9,14.6-25.5l-27.9-5.1l31.5-2.7c0.6-1.4,1.2-2.8,1.8-4.2l-43-6.4l52.1-20.7
			c3.6-15,5.2-30.8,3-46.8l-21.2,5.7l19.8-13.5c-0.1-0.4-0.2-0.9-0.3-1.3c-2.2-9.8-7.3-18.4-14.3-25.7l-42.7,53.8l33.5-61.8
			c-16.5-11.9-39.5-18.9-64-20.5l-11,31.4l0.3-31.7c-6.6,0-13.2,0.4-19.8,1.1l6.6,51.7l-16.2-50.3c-18.7,3.3-36.8,9.8-51.9,19.7
			l4.9,18.2l-10.1-14.5c-4,3-7.8,6.3-11.3,9.9l34.6,38.5l-40.9-31.4c-5.4,6.8-9.8,14.5-12.9,23c-1.5,4.2-2.8,8.3-3.9,12.3
			c16.9,9,49.2,26.1,50.8,27.1c1.7,1-35.8-8.9-53.6-13.6c-0.3,2.3-0.6,4.6-0.8,6.8l7.3,8.1l-7.6-1.9c-0.4,14.5,2.2,27.5,6.5,38.8
			l31.7,6.5c0,0-14.7,0.9-28.3,1.7c15.4,32.4,43.4,49.3,43.4,49.3l120.7-0.8c0,0,6.5-7.3,15-19.6l-22.2-8.1L293.9,1010.6z"/>
	</g>
	<g clip-path="url(#SVGID_2_)">
		<g>
			<path fill="#A07B4A" d="M598.8,615l-18-126.8c0,0-11-2.3-12,7s16.5,125.2,16.5,125.2L598.8,615z"/>
			<path fill="#845F34" d="M580.8,488.2c0,0-9.3-4.6-12,7C566.2,506.8,586.5,495,580.8,488.2z"/>
			<path fill="#916D41" d="M598.8,615l-0.2-1.3l-12.3-2.6l-1.5-9.3l5.8-4.1l-6.3,2.3l-0.5-5.2l9-6.7l-9.7,5.4c0,0-2-7-2.7-16.1
				c-0.7-9.1-0.2-9.6-0.2-9.6l10.3-7.3l-10,5.2l4-4.9l-4,3.4l-1-1.8l8.3-11.1l-10,9.9l-1-14l2.7-3.9l6.5-9.9l-10.3,9.9l-2.5-15
				l1-4.1l5.5-3.1l-5.5-1.6l-5-15.7c2.8,28.8,16.1,116.8,16.1,116.8L598.8,615z"/>
		</g>
		<g>
			<path fill="#FFF5EB" d="M551.1,530.3c11.9-8.3,21.2-19.3,27.1-32.5c1.3-2.9-3-5.5-4.3-2.5c-5.6,12.4-14.1,22.9-25.3,30.7
				C545.9,527.8,548.4,532.2,551.1,530.3L551.1,530.3z"/>
		</g>
		<g>
			<path fill="#A07B4A" d="M563.8,671.3l-9.6-153.5c0,0-10.8-3.4-12.4,7.8c-1.6,11.2,8.2,151.6,8.2,151.6L563.8,671.3z"/>
			<path fill="#845F34" d="M554.1,517.7c0,0-9-6.1-12.4,7.8C538.3,539.3,559.4,526.2,554.1,517.7z"/>
			<path fill="#916D41" d="M563.8,671.3l-0.1-1.6l-12.1-3.8l-0.9-11.3l6.1-4.7l-6.5,2.5l-0.2-6.3l9.4-7.6l-10,6
				c0,0-1.5-8.5-1.6-19.5c-0.1-11,0.5-11.6,0.5-11.6l10.8-8.2l-10.3,5.7l4.3-5.7l-4.2,3.8l-0.9-2.2l9.1-13l-10.6,11.3l-0.1-16.9
				l2.9-4.5l7.1-11.5l-11,11.3l-1.5-18.2l1.3-4.9l5.7-3.4l-5.4-2.2l-4-19.2c0.9,34.8,8.3,141.4,8.3,141.4L563.8,671.3z"/>
		</g>
		<g>
			<path fill="#FFF5EB" d="M500,558.4c20.2,5.7,42.7-6.8,48.5-27c0.9-3.1-3.9-4.4-4.8-1.3c-5.1,17.6-24.7,28.5-42.3,23.5
				C498.3,552.7,496.9,557.5,500,558.4L500,558.4z"/>
		</g>
		<g>
			<path fill="#A07B4A" d="M528.7,716.3l-25.2-169.6c0,0-15.4-3.1-16.8,9.4c-1.4,12.5,23.1,167.5,23.1,167.5L528.7,716.3z"/>
			<path fill="#845F34" d="M503.5,546.7c0,0-13-6.2-16.8,9.4C483.1,571.6,511.5,555.8,503.5,546.7z"/>
			<path fill="#916D41" d="M528.7,716.3l-0.3-1.8l-17.2-3.5l-2.1-12.5l8.2-5.5l-8.9,3.1l-0.7-6.9l12.6-9l-13.5,7.3
				c0,0-2.8-9.4-3.7-21.5c-0.9-12.1-0.2-12.8-0.2-12.8l14.4-9.7l-14,6.9l5.6-6.6l-5.6,4.5l-1.4-2.4l11.6-14.9l-14,13.2l-1.4-18.7
				l3.7-5.2L511,607l-14.4,13.2l-3.5-20.1l1.4-5.5l7.7-4.2l-7.7-2.1l-7-21c3.9,38.5,22.4,156.2,22.4,156.2L528.7,716.3z"/>
		</g>
		<g>
			<path fill="#FFF5EB" d="M402.9,645.9c22.8-0.2,41.2-14.4,56.8-29.6c15.3-15,33.8-32.7,36.3-55.2c0.3-3.2-4.7-3.2-5,0
				c-2.2,20.9-20.7,37.6-34.8,51.7c-14.5,14.4-32,27.9-53.3,28.2C399.7,641,399.7,646,402.9,645.9L402.9,645.9z"/>
		</g>
		<g>
			<path fill="#A07B4A" d="M461.2,835l-48.5-219.7c0,0-29.7-4-32.4,12.1c-2.7,16.2,44.5,217,44.5,217L461.2,835z"/>
			<path fill="#845F34" d="M412.6,615.3c0,0-25.2-8-32.4,12.1C373.1,647.5,427.9,627,412.6,615.3z"/>
			<path fill="#916D41" d="M461.2,835l-0.5-2.3l-33.2-4.5l-4-16.2l15.7-7.2l-17.1,4l-1.3-9l24.3-11.7l-26.1,9.4
				c0,0-5.4-12.1-7.2-27.9c-1.8-15.7-0.4-16.6-0.4-16.6l27.9-12.6l-27,9L423,741l-10.8,5.8l-2.7-3.1l22.5-19.3l-27,17.1l-2.7-24.3
				l7.2-6.7l17.5-17.1l-27.9,17.1l-6.7-26.1l2.7-7.1l14.8-5.4l-14.8-2.7L381.5,642c7.4,49.9,43.3,202.4,43.3,202.4L461.2,835z"/>
		</g>
		<g>
			<path fill="#FFF5EB" d="M314.5,780.8c28.6,0.4,47.5-26,59.9-48.5c15-27.3,23.2-58.2,24.5-89.3c0.3-6.5-9.7-6.4-10,0
				c-1.2,27.7-8.2,54.8-20.7,79.6c-10.3,20.5-27.5,48.5-53.7,48.1C308.1,770.7,308.1,780.7,314.5,780.8L314.5,780.8z"/>
		</g>
		<g>
			<path fill="#A07B4A" d="M379.5,993.1l-54-244.5c0,0-33-4.5-36,13.5c-3,18,49.5,241.5,49.5,241.5L379.5,993.1z"/>
			<path fill="#845F34" d="M325.5,748.6c0,0-28-8.9-36,13.5C281.5,784.5,342.5,761.7,325.5,748.6z"/>
			<path fill="#916D41" d="M379.5,993.1l-0.6-2.6l-36.9-5l-4.5-18l17.5-8l-19,4.5l-1.5-10l27-13l-29,10.5c0,0-6-13.5-8-31
				S324,902,324,902l31-14l-30,10l12-9.5l-12,6.5l-3-3.5l25-21.5l-30,19l-3-27l8-7.5l19.5-19l-31,19l-7.5-29l3-7.9l16.5-6l-16.5-3
				l-15.1-30.3c8.3,55.6,48.1,225.3,48.1,225.3L379.5,993.1z"/>
		</g>
		<g>
			<path fill="#FFF5EB" d="M166.4,1039c18.4-14.1,36.9-28.3,53.7-44.4c17.6-16.9,32-36.3,43.8-57.7c12-21.7,23.2-44.1,33-66.9
				c9.8-22.8,17.3-46.4,19.4-71.2c0.8-9.6-14.2-9.6-15,0c-1.9,22.6-9.1,44.5-18,65.3c-9.3,21.7-20.2,42.9-31.4,63.6
				c-11.1,20.5-24.5,38.7-41.1,55c-16.1,15.8-34,29.6-51.9,43.2c-3.2,2.5-5,6.4-2.7,10.3C158,1039.5,163.2,1041.5,166.4,1039
				L166.4,1039z"/>
		</g>
	</g>
	<path opacity="0.85" clip-path="url(#SVGID_2_)" fill="#DDBD76" d="M1014.7,719.1c-15.4,30.8-10.3,66.8,5.9,97.2
		c35.2,66,118,106.7,202.2,120c84.1,13.3,170.7,3.5,255.5-6.3c8.7-1,18.3-2.4,23.9-8.1c4.1-4.2,5.3-9.9,5.9-15.3
		c6.8-64-46.7-120-97.1-168.1c-36.2-34.6-72.5-69.3-108.7-103.9c-13.3-12.7-27.6-25.9-46.8-30.7c-17.1-4.2-35.5-1-52.6,3.2
		c-45.1,11-87.9,28.8-125.9,52.1C1051.3,675.1,1027.1,694.3,1014.7,719.1z"/>
	<path clip-path="url(#SVGID_2_)" fill="#E8CB89" d="M1126,627.7c0,0,125-132,274-174s116,96,116,96l9,231l-60,147c0,0-222-6-258-42
		c-36-36-117-102-126-108C1072,771.7,1126,627.7,1126,627.7z"/>
	<g clip-path="url(#SVGID_2_)">
		<g>
			<path fill="#A07B4A" d="M838.2,576.5l40.2-121.6c0,0,11.2-0.3,10.6,9c-0.7,9.4-38.5,120.3-38.5,120.3L838.2,576.5z"/>
			<path fill="#845F34" d="M878.4,454.9c0,0,10-2.9,10.6,9C889.5,475.9,871.6,460.6,878.4,454.9z"/>
			<path fill="#916D41" d="M838.2,576.5l0.4-1.3l12.6-0.4l3.1-8.9l-5-5.1l5.8,3.4l1.4-5l-7.7-8.2l8.6,7.1c0,0,3.2-6.5,5.5-15.3
				c2.3-8.8,1.9-9.4,1.9-9.4l-8.9-9l8.9,6.9l-3.1-5.6l3.3,4l1.3-1.6l-6.2-12.5l8.1,11.5l3.5-13.6l-1.9-4.3l-4.7-10.9l8.4,11.5
				l5.1-14.4l-0.3-4.2l-4.9-4l5.7-0.6l7.8-14.5c-7.8,27.9-36.5,112.1-36.5,112.1L838.2,576.5z"/>
		</g>
		<g>
			<path fill="#FFF5EB" d="M903.6,498c-9.6-9.6-16.3-21.4-19.5-34.7c-0.8-3.1-5.6-1.8-4.8,1.3c3.5,14,10.6,26.6,20.8,36.9
				C902.4,503.8,905.9,500.3,903.6,498L903.6,498z"/>
		</g>
		<g>
			<path fill="#A07B4A" d="M862.7,638.1l36.8-149.4c0,0,11.3-1.4,10.9,9.9c-0.4,11.3-35,147.7-35,147.7L862.7,638.1z"/>
			<path fill="#845F34" d="M899.4,488.8c0,0,10-4.4,10.9,9.9C911.2,512.8,892.8,496.2,899.4,488.8z"/>
			<path fill="#916D41" d="M862.7,638.1l0.4-1.6l12.6-1.6l2.9-11l-5.2-5.7l5.9,3.6l1.3-6.1l-7.9-9.2l8.8,7.7c0,0,3-8.1,5-18.9
				c2-10.8,1.6-11.5,1.6-11.5l-9.2-10l9.2,7.4l-3.2-6.4l3.5,4.5l1.3-2l-6.6-14.4l8.5,13l3.1-16.6l-2.1-5l-5-12.6l8.8,13.1l4.7-17.7
				l-0.4-5l-5-4.4l5.7-1.2l7.3-18.1c-7,34.1-33.3,137.7-33.3,137.7L862.7,638.1z"/>
		</g>
		<g>
			<path fill="#FFF5EB" d="M945.2,533.4c-18.1,1.8-35.8-12.1-37.7-30.4c-0.3-3.2-5.3-3.2-5,0c2.1,20.8,21.7,37.4,42.7,35.4
				C948.4,538.1,948.4,533.1,945.2,533.4L945.2,533.4z"/>
		</g>
		<g>
			<path fill="#A07B4A" d="M889.2,704.7l54.9-178.4c0,0,15.7-0.3,14.8,12.2c-0.8,12.5-52.4,176.8-52.4,176.8L889.2,704.7z"/>
			<path fill="#845F34" d="M944.1,526.3c0,0,13.9-3.8,14.8,12.2C959.8,554.4,934.7,533.8,944.1,526.3z"/>
			<path fill="#916D41" d="M889.2,704.7l0.6-1.7l17.5-0.4l4.3-11.9l-7-22.9l8.2,20.6l1.9-22.7l-10.8-11.1l12,9.6
				c0,0,4.4-8.7,7.5-20.5c3.1-11.8,2.5-12.6,2.5-12.6L913.4,619l12.5,9.3l-4.3-7.5l4.7,5.4l1.8-2.1l-8.8-16.7l11.4,15.5l4.7-18.2
				l-2.7-5.8l-6.6-14.6l11.9,15.5l7-19.2l-0.4-5.6l-6.8-5.5l7.9-0.7l10.7-19.4c-10.6,37.2-49.8,165.8-49.8,165.8L889.2,704.7z"/>
		</g>
		<g>
			<path fill="#FFF5EB" d="M1026.6,636.9c-20.3-3.9-34.7-19.2-46.3-35.3c-5.9-8.1-11.3-16.7-16.4-25.3c-6.1-10.4-10.8-21.8-10-34.1
				c0.2-3.2-4.8-3.2-5,0c-1.6,23.3,15,45.2,27.9,63.1c12,16.7,27.4,32.4,48.4,36.4C1028.4,642.3,1029.7,637.5,1026.6,636.9
				L1026.6,636.9z"/>
		</g>
		<g>
			<path fill="#A07B4A" d="M934.6,817.5l86.8-207.6c0,0,29.9,1.3,29.7,17.7c-0.2,16.4-82.3,205.7-82.3,205.7L934.6,817.5z"/>
			<path fill="#845F34" d="M1021.3,609.9c0,0,26.2-3.4,29.7,17.7C1054.5,648.6,1004.2,618.7,1021.3,609.9z"/>
			<path fill="#916D41" d="M934.6,817.5l0.9-2.2l33.4,1.5l6.9-15.2l-14.2-9.9l16.1,7l2.9-8.6l-21.8-15.8l24,13.9c0,0,7.5-11,12-26.1
				c4.6-15.2,3.4-16.3,3.4-16.3L973,728.4l24.9,13.6l-9.1-10.3l9.6,7.7l3.2-2.6l-18.7-23l23.5,21.6l7-23.4l-5.9-7.9l-14.2-19.9
				l24.4,21.8l11.3-24.5l-1.4-7.5l-13.6-7.9l15.1,0l18.2-24.3c-16.2,47.8-78.5,191.5-78.5,191.5L934.6,817.5z"/>
		</g>
		<g>
			<path fill="#FFF5EB" d="M1090.7,780.4c-24.6-4.1-36.2-31.1-43.2-52.1c-9.2-27.7-11.9-57.6-7.9-86.4c0.9-6.3-8.8-9-9.6-2.7
				c-4.3,31.4-1.6,63.3,8.5,93.5c7.9,23.7,22.1,52.9,49.6,57.4C1094.4,791.1,1097.1,781.5,1090.7,780.4L1090.7,780.4z"/>
		</g>
		<g>
			<path fill="#A07B4A" d="M986.9,987.6l96.6-231c0,0,33.3,1.4,33,19.7c-0.2,18.2-91.6,228.9-91.6,228.9L986.9,987.6z"/>
			<path fill="#845F34" d="M1083.4,756.5c0,0,29.1-3.8,33,19.7C1120.4,799.7,1064.4,766.4,1083.4,756.5z"/>
			<path fill="#916D41" d="M986.9,987.6l1-2.5l37.2,1.6l7.6-16.9l-15.8-11l17.9,7.8l3.3-9.6l-24.3-17.6l26.7,15.5
				c0,0,8.3-12.2,13.4-29.1s3.8-18.1,3.8-18.1l-28-19.3l27.7,15.2l-10.1-11.5l10.7,8.5l3.6-2.9l-20.8-25.6l26.1,24l7.7-26l-6.5-8.8
				l-15.8-22.2l27.1,24.2l12.5-27.2l-1.5-8.3l-15.2-8.8l16.8,0l20.3-27.1c-18,53.2-87.4,213.1-87.4,213.1L986.9,987.6z"/>
		</g>
		<g>
			<path fill="#FFF5EB" d="M1198.6,1059.6c-14.6-16.1-29.3-32.2-42.1-49.7c-13.6-18.7-23.8-38.9-31.3-60.7
				c-7.6-22.3-14.2-45.1-19.8-68c-5.8-23.6-9.2-47.8-6.9-72.1c0.9-9.6-14.1-9.5-15,0c-2.3,25,1.2,49.9,7,74.2
				c5.7,24.1,12.9,48.2,20.9,71.7c7.7,22.5,18.3,43.2,32.2,62.5c13.4,18.7,29,35.8,44.5,52.8
				C1194.5,1077.3,1205.1,1066.7,1198.6,1059.6L1198.6,1059.6z"/>
		</g>
	</g>
	<g clip-path="url(#SVGID_2_)">
		<g>
			<path fill="#7C5C37" d="M500.7,694.5l212.2-2.2l184.8-3.7l-17.8-9.7l8.9-0.7l-0.8-12.7l-6.5-7.5l-6.5,0.7l-326.8,8.2l-22.6,2.2
				l0.8,6l-9.7,1.5c0,0,20.2,4.5,17.8,5.2c-2.4,0.7-18.6-1.5-18.6-1.5l-9.7,7.5L500.7,694.5z"/>
			<path fill="#A07B4A" d="M503.1,691.5l212.2-2.2l184.8-3.7l-17.8-9.7l8.9-0.7l-0.8-12.7l-6.5-7.5l-6.5,0.7l-326.8,8.2l-22.6,2.2
				l0.8,6l-9.7,1.5c0,0,20.2,4.5,17.8,5.2c-2.4,0.7-18.6-1.5-18.6-1.5l-9.7,7.5L503.1,691.5z"/>
		</g>
		<g>
			<path fill="#7C5C37" d="M577.2,589.4l149.2-2.1l129.9-3.5l-12.5-9l6.2-0.7l-0.6-11.8l-4.5-6.9l-4.5,0.7l-229.8,7.6l-15.9,2.1
				l0.6,5.5l-6.8,1.4c0,0,14.2,4.2,12.5,4.9c-1.7,0.7-13-1.4-13-1.4l-6.8,6.9L577.2,589.4z"/>
			<path fill="#A07B4A" d="M578.9,586.6l149.2-2.1l129.9-3.5l-12.5-9l6.2-0.7l-0.6-11.8l-4.5-6.9l-4.5,0.7L612.4,561l-15.9,2.1
				l0.6,5.5l-6.8,1.4c0,0,14.2,4.2,12.5,4.9c-1.7,0.7-13-1.4-13-1.4l-6.8,6.9L578.9,586.6z"/>
		</g>
		<path fill="#846138" d="M442.6,789l1.6,5.2c0,0,236.4-5.2,238.9-5.2c2.4,0,259.8-3,259.8-3l4-4.5c0,0-330-15-330-17.2
			C616.9,762,442.6,789,442.6,789z"/>
		<polygon fill="#7F6846" points="472.8,744.1 463.4,759.8 455.1,775.4 442.6,789 946.9,781.5 937.3,765.3 923.4,728 		"/>
		<polygon fill="#A07B4A" points="455.1,775.4 471.1,763.5 498.3,762.9 464.3,754 472.8,744.1 923.4,728 929.1,739.4 907.5,746.7 
			928.2,746.2 937.3,765.3 946.9,781.5 442.6,789 		"/>
		<polygon fill="#7C5C37" points="424.6,846.7 426.7,851.2 612.9,855.7 970.8,846 972.2,833.8 961.7,822.8 941.6,804.1 457.3,812.5 
			439.9,824.7 430.2,829.9 		"/>
		<polygon fill="#9F8459" points="424.6,848 430.2,831.2 505.2,831.2 439.9,826 439.9,814.4 453.8,796.3 676.2,787.3 931.9,788.6 
			941.6,805.4 924.9,810.5 954.1,810.5 965.2,826 954.1,829.9 972.2,835 972.2,842.8 541.3,854.4 		"/>
		<polygon fill="#9E7846" points="424.6,846.7 430.2,829.9 505.2,829.9 439.9,824.7 439.9,813.1 453.8,795 676.2,786 931.9,787.3 
			941.6,804.1 924.9,809.2 954.1,809.2 965.2,824.7 954.1,828.6 972.2,833.8 972.2,841.5 541.3,853.1 		"/>
		<polygon fill="#7C5C37" points="384.5,915.7 386.9,920.9 603.2,926.2 1018.7,914.9 1020.4,900.7 1008.2,887.9 984.8,866.2 
			422.4,875.9 402.2,890.2 390.9,896.2 		"/>
		<polygon fill="#7F6846" points="371.6,926.2 357.1,950.2 344.1,974.2 339.3,995.1 1060.7,1004.1 1060.7,974.2 1041.3,915.7 		"/>
		<polygon fill="#A07B4A" points="344.1,974.2 368.4,956.2 408.7,956.2 358.7,941.2 371.6,926.2 1041.3,915.7 1049.4,933.7 
			1017.1,944.2 1047.8,944.2 1060.7,974.2 1060.7,1004.1 339.3,995.1 		"/>
		<polygon fill="#9F8459" points="384.5,917.2 390.9,897.7 478.1,897.7 402.2,891.7 402.2,878.2 418.4,857.2 676.6,846.7 
			973.5,848.2 984.8,867.7 965.5,873.7 999.4,873.7 1012.3,891.7 999.4,896.2 1020.4,902.2 1020.4,911.2 520.1,924.7 		"/>
		<polygon fill="#8E6E40" points="384.5,915.7 390.9,896.2 478.1,896.2 402.2,890.2 402.2,876.7 418.4,855.7 676.6,845.2 
			973.5,846.7 984.8,866.2 965.5,872.2 999.4,872.2 1012.3,890.2 999.4,894.7 1020.4,900.7 1020.4,909.7 520.1,923.2 		"/>
		<g>
			<polygon fill="#7C5C37" points="910.9,726.8 909.4,730.3 761.8,739.2 477.6,742.7 476.1,733.5 484,725 504.5,703.3 883.8,702 
				898,710.7 905.9,714.3 			"/>
			<polygon fill="#9F8459" points="911.9,727.7 906.9,715.2 847.4,717.5 899,711.6 898.7,702.9 887,689.7 710.3,689.6 507.5,698.3 
				500.4,711.2 513.8,714.6 490.6,715.4 482.3,727.4 491.3,730 477.1,734.4 477.4,740.2 819.5,736.1 			"/>
			<polygon fill="#8E6E40" points="911.8,725.2 906.9,712.8 847.4,715 899,709.2 898.6,700.4 887,687.3 710.3,687.1 507.5,695.8 
				500.3,708.7 513.7,712.1 490.6,713 482.3,724.9 491.2,727.5 477.1,732 477.3,737.8 819.5,733.6 			"/>
		</g>
		<g>
			<path fill="#7C5C37" d="M556.1,620.6l7-9.5l8.6,1l-7.5-4l11.8-19.5l157.6-0.5l75.3-1l45.7-1.5l5.4,8l-5.4,1.5l10.2,1.5l4.3,10
				c0,0-15.6,0-14,0.5c1.6,0.5,17.8,4.5,17.8,4.5l1.1,4l-59.7,1L556.1,620.6z"/>
			<path fill="#8E6E40" d="M557.2,618.6l7-9.5l8.6,1l-7.5-4l11.8-19.5l157.6-0.5l75.3-1l45.7-1.5l5.4,8l-5.4,1.5l10.2,1.5l4.3,10
				c0,0-15.6,0-14,0.5c1.6,0.5,17.8,4.5,17.8,4.5l1.1,4l-59.7,1L557.2,618.6z"/>
		</g>
		<g>
			<path fill="#846138" d="M527.6,665.6c1.6,0,229.7-5.5,229.7-5.5l135-5l-1.1-8.5l-10.8-12.5l-10.8-3l10.8-2.5l-3.2-12l-57,5
				l-12.4-1l-253.9,3l7.5,5.5l-10.2,1l39.8,3l-40.3-0.5l-5.4,12l5.4,4l-6.5,1L527.6,665.6z"/>
			<path fill="#8E6E40" d="M528.1,663.1c1.6,0,229.7-5.5,229.7-5.5l135-5l-1.1-8.5L881,631.6l-10.8-3l10.8-2.5l-3.2-12l-57,5
				l-12.4-1l-253.9,3l7.5,5.5l-10.2,1l39.8,3l-40.3-0.5l-5.4,12l5.4,4l-6.5,1L528.1,663.1z"/>
		</g>
	</g>
	<g clip-path="url(#SVGID_2_)">
		<path fill="#F8FFDE" d="M229.4,113.9c-3.4-8.4-7-17.1-14-22.9c-9.9-8.3-25.7-8.2-35.6,0.2c-9.8,8.3-12.4,24-5.9,35.1
			c-30.1-19.9-70.3-30.1-102.3-13.5c7.6,17.4,20,32.2,32.2,46.8C85.5,158,66.7,165,53.7,178c8.3,3,17.4,1,26-1
			c16.7-3.9,33.4-7.8,50.1-11.7c18.4,19.7,44.5,32,71.4,33.6c4.3-10.4,0.2-23.5-9.2-29.5c14.7,9.3,31.5,15.3,48.8,17.3
			c6.3,0.8,13.2,0.8,18.5-2.7c5.3-3.6,7.4-12.2,2.5-16.3c11.2,16.7,37.8,20.1,52.8,6.8c-1.9,11.9,5.5,23.9,15.6,30.6
			c10.1,6.7,22.3,9.1,34.3,10.8c10.2,1.4,20.8,2.5,30.8,0c10-2.4,19.6-8.9,23.3-18.5c5.4-14-5.3-31.6-20.2-33.2
			c23.8,0.7,50.2,0.5,68-15.4c2.3-2.1,4.6-4.8,4.4-7.9c-0.3-3.8-4.1-6.1-7.6-7.6c-26.9-11-57.3-0.4-84.3,10.2
			c10.9-7.8,22-15.8,29.8-26.7c7.8-10.9,11.8-25.5,6.9-37.9c-2.5-6.3-7-11.7-12.3-16c-19.5-16-48.3-17.8-71.7-8.4
			c-23.5,9.4-42,28.4-55.5,49.8c-6.3-7.4-16.7-11-26.2-9C240.4,97.2,232.2,104.6,229.4,113.9z"/>
		<path fill="#E3FFE3" d="M235.4,121.4c-3.1-8.5-6.3-17.4-13.1-23.5c-9.6-8.6-25.4-9.2-35.5-1.2c-10.1,7.9-13.4,23.5-7.3,34.8
			c-29.3-21.1-69-32.9-101.7-17.6c6.9,17.7,18.7,33,30.4,48c-18.3-2.2-37.4,4-50.9,16.5c8.1,3.3,17.3,1.7,26,0
			c16.8-3.2,33.7-6.5,50.5-9.7c17.6,20.4,43.2,33.8,70,36.4c4.7-10.2,1.1-23.4-8.1-29.9c14.3,9.9,30.9,16.5,48.1,19.3
			c6.3,1,13.2,1.4,18.6-2c5.4-3.4,7.8-11.9,3.2-16.2c10.5,17.1,36.9,21.6,52.5,8.9c-2.4,11.8,4.6,24.1,14.4,31.2
			c9.8,7.1,21.9,10,33.8,12.1c10.2,1.8,20.6,3.3,30.8,1.3c10.1-2,20-8.1,24.1-17.6c5.9-13.7-4.1-31.8-18.8-34
			c23.8,1.6,50.2,2.5,68.6-12.6c2.4-2,4.8-4.6,4.7-7.8c-0.2-3.8-3.9-6.3-7.3-7.9c-26.4-12-57.2-2.6-84.6,6.9
			c11.2-7.3,22.6-14.9,30.9-25.5c8.2-10.6,12.8-25,8.4-37.6c-2.2-6.4-6.6-11.9-11.6-16.5c-18.9-16.8-47.5-19.7-71.4-11.2
			c-23.8,8.4-43.1,26.7-57.4,47.5c-6-7.6-16.2-11.7-25.8-10.1C247,105.2,238.6,112.3,235.4,121.4z"/>
	</g>
	<g clip-path="url(#SVGID_2_)">
		<path fill="#F8FFDE" d="M1057.9,193.3c2.4-6,5-12.3,10-16.4c7.1-5.9,18.4-5.9,25.4,0.1c7,6,8.9,17.2,4.2,25.1
			c21.6-14.2,50.3-21.5,73.2-9.7c-5.5,12.5-14.3,23.1-23.1,33.5c13.1-1.1,26.6,3.9,35.9,13.3c-5.9,2.1-12.4,0.7-18.6-0.7
			c-11.9-2.8-23.9-5.6-35.8-8.4c-13.1,14.1-31.8,22.9-51.1,24.1c-3-7.4-0.1-16.8,6.6-21.1c-10.5,6.7-22.6,10.9-34.9,12.4
			c-4.5,0.5-9.5,0.6-13.2-2c-3.8-2.6-5.3-8.7-1.8-11.7c-8,11.9-27,14.4-37.8,4.9c1.4,8.5-3.9,17.1-11.2,21.9
			c-7.2,4.8-16,6.5-24.5,7.7c-7.3,1-14.8,1.8-22,0c-7.2-1.7-14-6.3-16.7-13.2c-3.8-10,3.8-22.6,14.4-23.8
			c-17.1,0.5-35.9,0.4-48.7-11c-1.7-1.5-3.3-3.4-3.1-5.7c0.2-2.7,2.9-4.4,5.4-5.4c19.2-7.9,41-0.3,60.3,7.3
			c-7.8-5.6-15.8-11.3-21.3-19.1c-5.6-7.8-8.4-18.2-4.9-27.1c1.8-4.5,5-8.4,8.8-11.4c14-11.5,34.5-12.7,51.3-6
			c16.8,6.7,30.1,20.3,39.7,35.6c4.5-5.3,11.9-7.9,18.7-6.5C1050,181.3,1055.9,186.7,1057.9,193.3z"/>
		<path fill="#E3FFE3" d="M1053.6,198.7c2.2-6.1,4.5-12.5,9.3-16.8c6.8-6.2,18.2-6.6,25.4-0.9c7.3,5.7,9.6,16.8,5.2,24.9
			c21-15.1,49.4-23.5,72.8-12.6c-5,12.7-13.4,23.6-21.7,34.4c13.1-1.6,26.7,2.9,36.4,11.8c-5.8,2.3-12.4,1.2-18.6,0
			c-12-2.3-24.1-4.6-36.1-6.9c-12.6,14.6-30.9,24.2-50.1,26.1c-3.3-7.3-0.8-16.8,5.8-21.4c-10.3,7.1-22.1,11.8-34.4,13.8
			c-4.5,0.7-9.4,1-13.3-1.4c-3.9-2.4-5.6-8.5-2.3-11.6c-7.5,12.2-26.4,15.4-37.6,6.4c1.7,8.5-3.3,17.2-10.3,22.3
			c-7,5.1-15.7,7.1-24.2,8.7c-7.3,1.3-14.8,2.3-22,0.9s-14.3-5.8-17.2-12.6c-4.2-9.8,2.9-22.7,13.5-24.3c-17,1.2-35.9,1.8-49.1-9
			c-1.7-1.4-3.4-3.3-3.3-5.6c0.1-2.7,2.8-4.5,5.2-5.6c18.9-8.6,40.9-1.9,60.6,4.9c-8-5.3-16.2-10.7-22.1-18.2
			c-5.9-7.6-9.1-17.9-6-26.9c1.6-4.6,4.7-8.5,8.3-11.8c13.5-12,34-14.1,51.1-8s30.8,19.1,41.1,34c4.3-5.5,11.6-8.3,18.5-7.2
			C1045.3,187,1051.3,192.1,1053.6,198.7z"/>
	</g>
	<path clip-path="url(#SVGID_2_)" fill="#DD6B6B" d="M1267,600.7l-45-99l-12,3l-9-11.7l58-18l2,14l-17,10l27,71l25-1l17,29
		c0,0-11-7-17-3s-3,7-9,11s-9-9-13-7S1267,600.7,1267,600.7z"/>
	<path clip-path="url(#SVGID_2_)" fill="#E3FFE3" d="M680.5,110.2c2.6-3.3,3.5-9.4-0.5-10.5c23,11.7,48.7,18.1,74.5,18.4
		c9.3,0.1,21.4-3.1,21.9-12.4c0.4-7.5-7.5-12.5-14.2-15.8c15.7,3.4,32.2,2.7,47.5-1.9c-3-9.7-17-13.8-24.8-7.2
		c-3.2-19.8-22.5-35.6-42.5-35.2s-38.6,16.8-41.7,36.6c-2.8-13.4-5.8-27-13.1-38.6c-7.3-11.5-20-20.6-33.7-19.8
		c-13.6,0.9-26.1,14.7-22.4,27.8c-0.8-7.5-11.2-11.3-17.5-7.1c-6.3,4.1-7.9,13.3-5.1,20.3c2.8,7,9.1,12.1,15.8,15.6
		c-7.6-1.6-15.7-3.2-23.1-0.7c-7.4,2.5-13.5,10.7-10.8,18c1.1,3,3.5,5.4,6.1,7.4c8.8,6.7,20.6,9.4,31.4,7.3
		c-5.3,1.5-8.3,8.2-6.1,13.2c4.7,1.6,9.8,3.1,14.5,1.6c4.7-1.5,8.2-7.6,5.2-11.6C653.5,124,671.6,121.5,680.5,110.2z"/>
	<path clip-path="url(#SVGID_2_)" fill="#E3FFE3" d="M1376.4,48.6c-6.7,1-12.2,6.3-15.1,12.4c-2.8,6.2-3.4,13.1-3.3,19.9
		c-1.3-4.9-6.5-8.5-11.6-7.9c-5.1,0.5-9.4,5.1-9.7,10.2c-13.9-4.9-30-2.7-42,5.7c-2.2,1.5-4.3,3.3-5.1,5.8c-1.3,4,1.1,8.4,4.6,10.7
		c3.5,2.3,7.8,2.9,12,3.4c16.7,1.9,33.5,2.5,50.3,1.7c-2.8,0.8-5.5,1.5-8.3,2.3c1.7,4.7,6.7,8.1,11.7,7.8c5-0.3,9.5-4.6,10-9.6
		c4.2,5.2,11.9,7.2,18.2,4.8c5.2-5,4.7-14.7-1-19.1c9.2,3.5,18.3,7,27.5,10.5c5.5,2.1,11.4,4.2,17.2,3.1c7.7-1.5,13.5-9.6,12.5-17.4
		c-0.1-0.9-0.3-1.9-0.9-2.7c-0.6-0.8-1.4-1.4-2.2-1.8c-5-2.9-10.9-4.3-16.7-4c-6.8-14.5-19-26.4-33.7-32.9
		C1386.2,49.4,1381.3,47.9,1376.4,48.6z"/>
	<g clip-path="url(#SVGID_2_)">
		<path fill="#C6A76A" d="M1255,805.3c-1,0-2,0-3,0c-1.4,0-2.5,1.1-2.5,2.5s1.1,2.5,2.5,2.5c1,0,2,0,3,0c1.4,0,2.5-1.1,2.5-2.5
			S1256.4,805.3,1255,805.3L1255,805.3z"/>
	</g>
	<g clip-path="url(#SVGID_2_)">
		<path fill="#C6A76A" d="M1309,771.2c1,0,2,0,3,0c1.4,0,2.5-1.1,2.5-2.5s-1.1-2.5-2.5-2.5c-1,0-2,0-3,0c-1.4,0-2.5,1.1-2.5,2.5
			S1307.6,771.2,1309,771.2L1309,771.2z"/>
	</g>
	<g clip-path="url(#SVGID_2_)">
		<path fill="#C6A76A" d="M1282,701.7c6.4,0,6.4-10,0-10S1275.5,701.7,1282,701.7L1282,701.7z"/>
	</g>
	<g clip-path="url(#SVGID_2_)">
		<path fill="#C6A76A" d="M1345,770.7c6.4,0,6.4-10,0-10C1338.6,760.7,1338.6,770.7,1345,770.7L1345,770.7z"/>
	</g>
	<g clip-path="url(#SVGID_2_)">
		<path fill="#C6A76A" d="M1360,847.8c-1,0-2,0-3,0c-2.7,0-5,2.3-5,5s2.3,5,5,5c1,0,2,0,3,0c2.7,0,5-2.3,5-5
			S1362.7,847.8,1360,847.8L1360,847.8z"/>
	</g>
	<g clip-path="url(#SVGID_2_)">
		<path fill="#C6A76A" d="M1285,770.7c6.4,0,6.4-10,0-10C1278.5,760.7,1278.5,770.7,1285,770.7L1285,770.7z"/>
	</g>
	<g clip-path="url(#SVGID_2_)">
		<path fill="#C6A76A" d="M1354,685.7c-1,0-2,0-3,0c-2.7,0-5,2.3-5,5c0,2.7,2.3,5,5,5c1,0,2,0,3,0c2.7,0,5-2.3,5-5
			C1359,688,1356.7,685.7,1354,685.7L1354,685.7z"/>
	</g>
	<g clip-path="url(#SVGID_2_)">
		<path fill="#C6A76A" d="M1213,641.7c6.4,0,6.4-10,0-10C1206.5,631.7,1206.5,641.7,1213,641.7L1213,641.7z"/>
	</g>
	<g clip-path="url(#SVGID_2_)">
		<path fill="#C6A76A" d="M1168,713.7c6.4,0,6.4-10,0-10C1161.5,703.7,1161.5,713.7,1168,713.7L1168,713.7z"/>
	</g>
	<g clip-path="url(#SVGID_2_)">
		<path fill="#C6A76A" d="M1315,632.7c6.4,0,6.4-10,0-10S1308.6,632.7,1315,632.7L1315,632.7z"/>
	</g>
	<g clip-path="url(#SVGID_2_)">
		<path fill="#C6A76A" d="M1366,526.7c-1,0-2,0-3,0c-2.7,0-5,2.3-5,5s2.3,5,5,5c1,0,2,0,3,0c2.7,0,5-2.3,5-5
			S1368.7,526.7,1366,526.7L1366,526.7z"/>
	</g>
	<g clip-path="url(#SVGID_2_)">
		<path fill="#C6A76A" d="M1360,623.7c6.4,0,6.4-10,0-10S1353.6,623.7,1360,623.7L1360,623.7z"/>
	</g>
	<g clip-path="url(#SVGID_2_)">
		<path fill="#C6A76A" d="M1312,722.7c6.4,0,6.4-10,0-10C1305.6,712.7,1305.6,722.7,1312,722.7L1312,722.7z"/>
	</g>
	<g clip-path="url(#SVGID_2_)">
		<path fill="#C6A76A" d="M1231,761.7c6.4,0,6.4-10,0-10S1224.5,761.7,1231,761.7L1231,761.7z"/>
	</g>
	<g clip-path="url(#SVGID_2_)">
		<path fill="#C6A76A" d="M1234,698.7c6.4,0,6.4-10,0-10C1227.5,688.7,1227.5,698.7,1234,698.7L1234,698.7z"/>
	</g>
	<g clip-path="url(#SVGID_2_)">
		<path fill="#C6A76A" d="M1174,637.7c12.9,0,12.9-20,0-20C1161.1,617.7,1161.1,637.7,1174,637.7L1174,637.7z"/>
	</g>
	<g clip-path="url(#SVGID_2_)">
		<path fill="#C6A76A" d="M1327,877.8c12.9,0,12.9-20,0-20C1314.1,857.8,1314.1,877.8,1327,877.8L1327,877.8z"/>
	</g>
	<g clip-path="url(#SVGID_2_)">
		<path fill="#C6A76A" d="M1159,790.7c12.9,0,12.9-20,0-20C1146.1,770.7,1146.1,790.7,1159,790.7L1159,790.7z"/>
	</g>
	<g clip-path="url(#SVGID_2_)">
		<path fill="#C6A76A" d="M1204,804.3c3.2,0,3.2-5,0-5S1200.8,804.3,1204,804.3L1204,804.3z"/>
	</g>
	<g clip-path="url(#SVGID_2_)">
		<path fill="#C6A76A" d="M1189,753.2c3.2,0,3.2-5,0-5C1185.8,748.2,1185.8,753.2,1189,753.2L1189,753.2z"/>
	</g>
	<g clip-path="url(#SVGID_2_)">
		<path fill="#C6A76A" d="M1135,735.2c3.2,0,3.2-5,0-5C1131.8,730.2,1131.8,735.2,1135,735.2L1135,735.2z"/>
	</g>
	<g clip-path="url(#SVGID_2_)">
		<path fill="#C6A76A" d="M1138.5,678.7c0,1,0,2,0,3c0,1.4,1.1,2.5,2.5,2.5s2.5-1.1,2.5-2.5c0-1,0-2,0-3c0-1.4-1.1-2.5-2.5-2.5
			S1138.5,677.4,1138.5,678.7L1138.5,678.7z"/>
	</g>
	<g clip-path="url(#SVGID_2_)">
		<path fill="#C6A76A" d="M1186,687.2c3.2,0,3.2-5,0-5C1182.8,682.2,1182.8,687.2,1186,687.2L1186,687.2z"/>
	</g>
	<g clip-path="url(#SVGID_2_)">
		<path fill="#C6A76A" d="M1195,720.2c3.2,0,3.2-5,0-5C1191.8,715.2,1191.8,720.2,1195,720.2L1195,720.2z"/>
	</g>
	<g clip-path="url(#SVGID_2_)">
		<path fill="#C6A76A" d="M1171,741.2c3.2,0,3.2-5,0-5C1167.8,736.2,1167.8,741.2,1171,741.2L1171,741.2z"/>
	</g>
	<g clip-path="url(#SVGID_2_)">
		<path fill="#C6A76A" d="M1207,732.2c3.2,0,3.2-5,0-5C1203.8,727.2,1203.8,732.2,1207,732.2L1207,732.2z"/>
	</g>
	<g clip-path="url(#SVGID_2_)">
		<path fill="#C6A76A" d="M1204,702.2c3.2,0,3.2-5,0-5S1200.8,702.2,1204,702.2L1204,702.2z"/>
	</g>
	<g clip-path="url(#SVGID_2_)">
		<path fill="#C6A76A" d="M1186,702.2c3.2,0,3.2-5,0-5C1182.8,697.2,1182.8,702.2,1186,702.2L1186,702.2z"/>
	</g>
	<g clip-path="url(#SVGID_2_)">
		<path fill="#C6A76A" d="M1177,813.3c3.2,0,3.2-5,0-5C1173.8,808.3,1173.8,813.3,1177,813.3L1177,813.3z"/>
	</g>
	<g clip-path="url(#SVGID_2_)">
		<path fill="#C6A76A" d="M1249,747.2c3.2,0,3.2-5,0-5C1245.8,742.2,1245.8,747.2,1249,747.2L1249,747.2z"/>
	</g>
	<g clip-path="url(#SVGID_2_)">
		<path fill="#C6A76A" d="M1300,675.2c3.2,0,3.2-5,0-5C1296.8,670.2,1296.8,675.2,1300,675.2L1300,675.2z"/>
	</g>
	<g clip-path="url(#SVGID_2_)">
		<path fill="#C6A76A" d="M1315,690.2c3.2,0,3.2-5,0-5C1311.8,685.2,1311.8,690.2,1315,690.2L1315,690.2z"/>
	</g>
	<g clip-path="url(#SVGID_2_)">
		<path fill="#C6A76A" d="M1297,714.2c3.2,0,3.2-5,0-5C1293.8,709.2,1293.8,714.2,1297,714.2L1297,714.2z"/>
	</g>
	<g clip-path="url(#SVGID_2_)">
		<path fill="#C6A76A" d="M1318,666.2c3.2,0,3.2-5,0-5C1314.8,661.2,1314.8,666.2,1318,666.2L1318,666.2z"/>
	</g>
	<g clip-path="url(#SVGID_2_)">
		<path fill="#C6A76A" d="M1204,612.2c3.2,0,3.2-5,0-5S1200.8,612.2,1204,612.2L1204,612.2z"/>
	</g>
	<g clip-path="url(#SVGID_2_)">
		<path fill="#C6A76A" d="M1201,588.2c3.2,0,3.2-5,0-5C1197.8,583.2,1197.8,588.2,1201,588.2L1201,588.2z"/>
	</g>
	<g clip-path="url(#SVGID_2_)">
		<path fill="#C6A76A" d="M1144,642.2c3.2,0,3.2-5,0-5C1140.8,637.2,1140.8,642.2,1144,642.2L1144,642.2z"/>
	</g>
	<g clip-path="url(#SVGID_2_)">
		<path fill="#C6A76A" d="M1162,663.2c3.2,0,3.2-5,0-5C1158.8,658.2,1158.8,663.2,1162,663.2L1162,663.2z"/>
	</g>
	<g clip-path="url(#SVGID_2_)">
		<path fill="#C6A76A" d="M1135,711.2c3.2,0,3.2-5,0-5C1131.8,706.2,1131.8,711.2,1135,711.2L1135,711.2z"/>
	</g>
	<g clip-path="url(#SVGID_2_)">
		<path fill="#C6A76A" d="M1327,543.2c3.2,0,3.2-5,0-5C1323.8,538.2,1323.8,543.2,1327,543.2L1327,543.2z"/>
	</g>
	<g clip-path="url(#SVGID_2_)">
		<path fill="#C6A76A" d="M1276.5,618.7c0,1,0,2,0,3c0,1.4,1.1,2.5,2.5,2.5s2.5-1.1,2.5-2.5c0-1,0-2,0-3c0-1.4-1.1-2.5-2.5-2.5
			S1276.5,617.4,1276.5,618.7L1276.5,618.7z"/>
	</g>
	<g clip-path="url(#SVGID_2_)">
		<path fill="#C6A76A" d="M1255,666.2c3.2,0,3.2-5,0-5C1251.8,661.2,1251.8,666.2,1255,666.2L1255,666.2z"/>
	</g>
	<g clip-path="url(#SVGID_2_)">
		<path fill="#C6A76A" d="M1291,663.2c3.2,0,3.2-5,0-5C1287.8,658.2,1287.8,663.2,1291,663.2L1291,663.2z"/>
	</g>
	<g clip-path="url(#SVGID_2_)">
		<path fill="#C6A76A" d="M1252,642.2c3.2,0,3.2-5,0-5C1248.8,637.2,1248.8,642.2,1252,642.2L1252,642.2z"/>
	</g>
	<g clip-path="url(#SVGID_2_)">
		<path fill="#C6A76A" d="M1213,672.2c3.2,0,3.2-5,0-5C1209.8,667.2,1209.8,672.2,1213,672.2L1213,672.2z"/>
	</g>
	<g clip-path="url(#SVGID_2_)">
		<path fill="#C6A76A" d="M1274.8,797.5c1-1,2-2,3-3c1-1,1-2.6,0-3.5c-1-1-2.6-1-3.5,0c-1,1-2,2-3,3c-1,1-1,2.6,0,3.5
			C1272.2,798.5,1273.8,798.5,1274.8,797.5L1274.8,797.5z"/>
	</g>
	<g clip-path="url(#SVGID_2_)">
		<path fill="#C6A76A" d="M1294,867.3c3.2,0,3.2-5,0-5C1290.8,862.3,1290.8,867.3,1294,867.3L1294,867.3z"/>
	</g>
	<g clip-path="url(#SVGID_2_)">
		<path fill="#C6A76A" d="M1222,834.3c1,0,2,0,3,0c1.4,0,2.5-1.1,2.5-2.5c0-1.4-1.1-2.5-2.5-2.5c-1,0-2,0-3,0
			c-1.4,0-2.5,1.1-2.5,2.5C1219.5,833.1,1220.6,834.3,1222,834.3L1222,834.3z"/>
	</g>
	<g clip-path="url(#SVGID_2_)">
		<path fill="#C6A76A" d="M1359.5,729.7c0-1,0-2,0-3c0-1.4-1.1-2.5-2.5-2.5s-2.5,1.1-2.5,2.5c0,1,0,2,0,3c0,1.4,1.1,2.5,2.5,2.5
			S1359.5,731.1,1359.5,729.7L1359.5,729.7z"/>
	</g>
	<g clip-path="url(#SVGID_2_)">
		<path fill="#C6A76A" d="M1387,666.2c3.2,0,3.2-5,0-5C1383.8,661.2,1383.8,666.2,1387,666.2L1387,666.2z"/>
	</g>
	<g clip-path="url(#SVGID_2_)">
		<path fill="#C6A76A" d="M1378,630.2c3.2,0,3.2-5,0-5C1374.8,625.2,1374.8,630.2,1378,630.2L1378,630.2z"/>
	</g>
	<g clip-path="url(#SVGID_2_)">
		<path fill="#C6A76A" d="M1399,598.2c-1,0-2,0-3,0c-1.4,0-2.5,1.1-2.5,2.5s1.1,2.5,2.5,2.5c1,0,2,0,3,0c1.4,0,2.5-1.1,2.5-2.5
			S1400.4,598.2,1399,598.2L1399,598.2z"/>
	</g>
	<g clip-path="url(#SVGID_2_)">
		<path fill="#C6A76A" d="M1387,567.2c3.2,0,3.2-5,0-5C1383.8,562.2,1383.8,567.2,1387,567.2L1387,567.2z"/>
	</g>
	<g clip-path="url(#SVGID_2_)">
		<path fill="#C6A76A" d="M1345,585.2c3.2,0,3.2-5,0-5C1341.8,580.2,1341.8,585.2,1345,585.2L1345,585.2z"/>
	</g>
	<g clip-path="url(#SVGID_2_)">
		<path fill="#C6A76A" d="M1318,534.2c1,0,2,0,3,0c1.4,0,2.5-1.1,2.5-2.5s-1.1-2.5-2.5-2.5c-1,0-2,0-3,0c-1.4,0-2.5,1.1-2.5,2.5
			S1316.6,534.2,1318,534.2L1318,534.2z"/>
	</g>
	<g clip-path="url(#SVGID_2_)">
		<path fill="#C6A76A" d="M1369,504.2c3.2,0,3.2-5,0-5C1365.8,499.2,1365.8,504.2,1369,504.2L1369,504.2z"/>
	</g>
	<g clip-path="url(#SVGID_2_)">
		<path fill="#C6A76A" d="M1396,549.2c3.2,0,3.2-5,0-5C1392.8,544.2,1392.8,549.2,1396,549.2L1396,549.2z"/>
	</g>
	<g clip-path="url(#SVGID_2_)">
		<path fill="#C6A76A" d="M1348,579.2c3.2,0,3.2-5,0-5C1344.8,574.2,1344.8,579.2,1348,579.2L1348,579.2z"/>
	</g>
	<g clip-path="url(#SVGID_2_)">
		<path fill="#C6A76A" d="M1294,546.2c3.2,0,3.2-5,0-5C1290.8,541.2,1290.8,546.2,1294,546.2L1294,546.2z"/>
	</g>
	<g clip-path="url(#SVGID_2_)">
		<path fill="#C6A76A" d="M1326.5,807.8c0-1,0-2,0-3c0-1.4-1.1-2.5-2.5-2.5s-2.5,1.1-2.5,2.5c0,1,0,2,0,3c0,1.4,1.1,2.5,2.5,2.5
			S1326.5,809.1,1326.5,807.8L1326.5,807.8z"/>
	</g>
	<g clip-path="url(#SVGID_2_)">
		<path fill="#C6A76A" d="M1288,828.3c1,0,2,0,3,0c1.4,0,2.5-1.1,2.5-2.5s-1.1-2.5-2.5-2.5c-1,0-2,0-3,0c-1.4,0-2.5,1.1-2.5,2.5
			S1286.6,828.3,1288,828.3L1288,828.3z"/>
	</g>
	<g clip-path="url(#SVGID_2_)">
		<path fill="#C6A76A" d="M1300,867.3c3.2,0,3.2-5,0-5C1296.8,862.3,1296.8,867.3,1300,867.3L1300,867.3z"/>
	</g>
	<g clip-path="url(#SVGID_2_)">
		<path fill="#C6A76A" d="M1369,888.3c3.2,0,3.2-5,0-5C1365.8,883.3,1365.8,888.3,1369,888.3L1369,888.3z"/>
	</g>
	<g clip-path="url(#SVGID_2_)">
		<path fill="#C6A76A" d="M1261,843.3c3.2,0,3.2-5,0-5C1257.8,838.3,1257.8,843.3,1261,843.3L1261,843.3z"/>
	</g>
	<g clip-path="url(#SVGID_2_)">
		<path fill="#C6A76A" d="M1321,831.3c3.2,0,3.2-5,0-5C1317.8,826.3,1317.8,831.3,1321,831.3L1321,831.3z"/>
	</g>
	<g clip-path="url(#SVGID_2_)">
		<path fill="#C6A76A" d="M1384,804.3c3.2,0,3.2-5,0-5C1380.8,799.3,1380.8,804.3,1384,804.3L1384,804.3z"/>
	</g>
	<g clip-path="url(#SVGID_2_)">
		<path fill="#C6A76A" d="M1285,867.3c3.2,0,3.2-5,0-5C1281.8,862.3,1281.8,867.3,1285,867.3L1285,867.3z"/>
	</g>
	<g clip-path="url(#SVGID_2_)">
		<path fill="#C6A76A" d="M1249,855.3c3.2,0,3.2-5,0-5C1245.8,850.3,1245.8,855.3,1249,855.3L1249,855.3z"/>
	</g>
	<g clip-path="url(#SVGID_2_)">
		<path fill="#E8C880" d="M1219,963.3c3.2,0,3.2-5,0-5C1215.8,958.3,1215.8,963.3,1219,963.3L1219,963.3z"/>
	</g>
	<g clip-path="url(#SVGID_2_)">
		<path fill="#E8C880" d="M1273,972.3c3.2,0,3.2-5,0-5C1269.8,967.3,1269.8,972.3,1273,972.3L1273,972.3z"/>
	</g>
	<g clip-path="url(#SVGID_2_)">
		<path fill="#E8C880" d="M1240,959.8c1,0,2,0,3,0c2.7,0,5-2.3,5-5s-2.3-5-5-5c-1,0-2,0-3,0c-2.7,0-5,2.3-5,5
			S1237.3,959.8,1240,959.8L1240,959.8z"/>
	</g>
	<g clip-path="url(#SVGID_2_)">
		<path fill="#E8C880" d="M1327,962.8c6.4,0,6.4-10,0-10C1320.6,952.8,1320.6,962.8,1327,962.8L1327,962.8z"/>
	</g>
	<g clip-path="url(#SVGID_2_)">
		<path fill="#E8C880" d="M1369,989.8c6.4,0,6.4-10,0-10S1362.6,989.8,1369,989.8L1369,989.8z"/>
	</g>
	<g clip-path="url(#SVGID_2_)">
		<path fill="#E8C880" d="M1300,959.8c6.4,0,6.4-10,0-10C1293.6,949.8,1293.6,959.8,1300,959.8L1300,959.8z"/>
	</g>
	<g clip-path="url(#SVGID_2_)">
		<path fill="#E8C880" d="M1171,956.8c6.4,0,6.4-10,0-10S1164.5,956.8,1171,956.8L1171,956.8z"/>
	</g>
	<g clip-path="url(#SVGID_2_)">
		<path fill="#E8C880" d="M1144,932.8c6.4,0,6.4-10,0-10S1137.5,932.8,1144,932.8L1144,932.8z"/>
	</g>
	<g clip-path="url(#SVGID_2_)">
		<path fill="#E8C880" d="M994,593.7c6.4,0,6.4-10,0-10C987.5,583.7,987.5,593.7,994,593.7L994,593.7z"/>
	</g>
	<g clip-path="url(#SVGID_2_)">
		<path fill="#E8C880" d="M1048,614.7c6.4,0,6.4-10,0-10S1041.5,614.7,1048,614.7L1048,614.7z"/>
	</g>
	<g clip-path="url(#SVGID_2_)">
		<path fill="#E8C880" d="M1105,577.7c-1,0-2,0-3,0c-2.7,0-5,2.3-5,5c0,2.7,2.3,5,5,5c1,0,2,0,3,0c2.7,0,5-2.3,5-5
			C1110,580,1107.7,577.7,1105,577.7L1105,577.7z"/>
	</g>
	<g clip-path="url(#SVGID_2_)">
		<path fill="#E8C880" d="M1084,626.7c6.4,0,6.4-10,0-10C1077.5,616.7,1077.5,626.7,1084,626.7L1084,626.7z"/>
	</g>
	<g clip-path="url(#SVGID_2_)">
		<path fill="#E8C880" d="M1132,583.7c-1,0-2,0-3,0c-2.7,0-5,2.3-5,5c0,2.7,2.3,5,5,5c1,0,2,0,3,0c2.7,0,5-2.3,5-5
			C1137,586,1134.7,583.7,1132,583.7L1132,583.7z"/>
	</g>
	<g clip-path="url(#SVGID_2_)">
		<path fill="#E8C880" d="M1060,599.7c6.4,0,6.4-10,0-10S1053.5,599.7,1060,599.7L1060,599.7z"/>
	</g>
	<g clip-path="url(#SVGID_2_)">
		<path fill="#E8C880" d="M969,660.7c0-1,0-2,0-3c0-2.7-2.3-5-5-5s-5,2.3-5,5c0,1,0,2,0,3c0,2.7,2.3,5,5,5S969,663.5,969,660.7
			L969,660.7z"/>
	</g>
	<g clip-path="url(#SVGID_2_)">
		<path fill="#E8C880" d="M958,638.7c6.4,0,6.4-10,0-10C951.5,628.7,951.5,638.7,958,638.7L958,638.7z"/>
	</g>
	<g clip-path="url(#SVGID_2_)">
		<path fill="#E8C880" d="M348.9,806.8c6.4,0,6.4-10,0-10S342.5,806.8,348.9,806.8L348.9,806.8z"/>
	</g>
	<g clip-path="url(#SVGID_2_)">
		<path fill="#E8C880" d="M360.9,773.7c6.4,0,6.4-10,0-10S354.5,773.7,360.9,773.7L360.9,773.7z"/>
	</g>
	<g clip-path="url(#SVGID_2_)">
		<path fill="#E8C880" d="M441.9,683.7c6.4,0,6.4-10,0-10S435.5,683.7,441.9,683.7L441.9,683.7z"/>
	</g>
	<g clip-path="url(#SVGID_2_)">
		<path fill="#E8C880" d="M336.9,692.7c6.4,0,6.4-10,0-10S330.5,692.7,336.9,692.7L336.9,692.7z"/>
	</g>
	<g clip-path="url(#SVGID_2_)">
		<path fill="#E8C880" d="M315.9,728.7c6.4,0,6.4-10,0-10S309.5,728.7,315.9,728.7L315.9,728.7z"/>
	</g>
	<g clip-path="url(#SVGID_2_)">
		<path fill="#E8C880" d="M333.9,623.7c6.4,0,6.4-10,0-10S327.5,623.7,333.9,623.7L333.9,623.7z"/>
	</g>
	<g clip-path="url(#SVGID_2_)">
		<path fill="#E8C880" d="M162.9,626.7c6.4,0,6.4-10,0-10S156.4,626.7,162.9,626.7L162.9,626.7z"/>
	</g>
	<g clip-path="url(#SVGID_2_)">
		<path fill="#E8C880" d="M164.9,597.7c0-1,0-2,0-3c0-2.7-2.3-5-5-5s-5,2.3-5,5c0,1,0,2,0,3c0,2.7,2.3,5,5,5
			S164.9,600.5,164.9,597.7L164.9,597.7z"/>
	</g>
	<g clip-path="url(#SVGID_2_)">
		<path fill="#E8C880" d="M408.9,595.7c-1,0-2,0-3,0c-2.7,0-5,2.3-5,5s2.3,5,5,5c1,0,2,0,3,0c2.7,0,5-2.3,5-5
			S411.6,595.7,408.9,595.7L408.9,595.7z"/>
	</g>
	<g clip-path="url(#SVGID_2_)">
		<path fill="#E8C880" d="M351.9,656.7c6.4,0,6.4-10,0-10S345.5,656.7,351.9,656.7L351.9,656.7z"/>
	</g>
	<g clip-path="url(#SVGID_2_)">
		<path fill="#E8C880" d="M315.9,674.7c6.4,0,6.4-10,0-10S309.5,674.7,315.9,674.7L315.9,674.7z"/>
	</g>
	<g clip-path="url(#SVGID_2_)">
		<path fill="#E8C880" d="M180.9,603.2c3.2,0,3.2-5,0-5C177.7,598.2,177.7,603.2,180.9,603.2L180.9,603.2z"/>
	</g>
	<g clip-path="url(#SVGID_2_)">
		<path fill="#E8C880" d="M204.9,600.2c3.2,0,3.2-5,0-5C201.7,595.2,201.7,600.2,204.9,600.2L204.9,600.2z"/>
	</g>
	<g clip-path="url(#SVGID_2_)">
		<path fill="#E8C880" d="M330.9,639.2c3.2,0,3.2-5,0-5C327.7,634.2,327.7,639.2,330.9,639.2L330.9,639.2z"/>
	</g>
	<g clip-path="url(#SVGID_2_)">
		<path fill="#E8C880" d="M363.9,612.2c3.2,0,3.2-5,0-5C360.7,607.2,360.7,612.2,363.9,612.2L363.9,612.2z"/>
	</g>
	<g clip-path="url(#SVGID_2_)">
		<path fill="#E8C880" d="M300.9,600.2c3.2,0,3.2-5,0-5C297.7,595.2,297.7,600.2,300.9,600.2L300.9,600.2z"/>
	</g>
	<g clip-path="url(#SVGID_2_)">
		<path fill="#E8C880" d="M-5.1,564.2c3.2,0,3.2-5,0-5C-8.4,559.2-8.4,564.2-5.1,564.2L-5.1,564.2z"/>
	</g>
	<g clip-path="url(#SVGID_2_)">
		<path fill="#E8C880" d="M964,693.2c3.2,0,3.2-5,0-5S960.7,693.2,964,693.2L964,693.2z"/>
	</g>
	<g clip-path="url(#SVGID_2_)">
		<path fill="#E8C880" d="M444.9,654.2c3.2,0,3.2-5,0-5S441.7,654.2,444.9,654.2L444.9,654.2z"/>
	</g>
	<g clip-path="url(#SVGID_2_)">
		<path fill="#E8C880" d="M351.9,729.2c3.2,0,3.2-5,0-5C348.7,724.2,348.7,729.2,351.9,729.2L351.9,729.2z"/>
	</g>
	<g clip-path="url(#SVGID_2_)">
		<path fill="#E8C880" d="M363.4,690.7c0-1,0-2,0-3c0-1.4-1.1-2.5-2.5-2.5c-1.4,0-2.5,1.1-2.5,2.5c0,1,0,2,0,3
			c0,1.4,1.1,2.5,2.5,2.5C362.3,693.2,363.4,692.1,363.4,690.7L363.4,690.7z"/>
	</g>
	<g clip-path="url(#SVGID_2_)">
		<path fill="#E8C880" d="M321.9,648.2c3.2,0,3.2-5,0-5C318.7,643.2,318.7,648.2,321.9,648.2L321.9,648.2z"/>
	</g>
	<g clip-path="url(#SVGID_2_)">
		<path fill="#E8C880" d="M360.9,609.2c3.2,0,3.2-5,0-5C357.7,604.2,357.7,609.2,360.9,609.2L360.9,609.2z"/>
	</g>
	<g clip-path="url(#SVGID_2_)">
		<path fill="#D8B571" d="M321.9,687.2c3.2,0,3.2-5,0-5C318.7,682.2,318.7,687.2,321.9,687.2L321.9,687.2z"/>
	</g>
	<g clip-path="url(#SVGID_2_)">
		<path fill="#D8B571" d="M328.4,723.7c0,1,0,2,0,3c0,1.4,1.1,2.5,2.5,2.5c1.4,0,2.5-1.1,2.5-2.5c0-1,0-2,0-3c0-1.4-1.1-2.5-2.5-2.5
			C329.5,721.2,328.4,722.4,328.4,723.7L328.4,723.7z"/>
	</g>
	<g clip-path="url(#SVGID_2_)">
		<path fill="#D8B571" d="M348.9,720.2c1,0,2,0,3,0c1.4,0,2.5-1.1,2.5-2.5s-1.1-2.5-2.5-2.5c-1,0-2,0-3,0c-1.4,0-2.5,1.1-2.5,2.5
			S347.5,720.2,348.9,720.2L348.9,720.2z"/>
	</g>
	<g clip-path="url(#SVGID_2_)">
		<path fill="#D8B571" d="M321.4,708.7c0-1,0-2,0-3c0-1.4-1.1-2.5-2.5-2.5s-2.5,1.1-2.5,2.5c0,1,0,2,0,3c0,1.4,1.1,2.5,2.5,2.5
			S321.4,710.1,321.4,708.7L321.4,708.7z"/>
	</g>
	<g clip-path="url(#SVGID_2_)">
		<path fill="#D8B571" d="M348.9,627.2c3.2,0,3.2-5,0-5C345.7,622.2,345.7,627.2,348.9,627.2L348.9,627.2z"/>
	</g>
	<g clip-path="url(#SVGID_2_)">
		<path fill="#D8B571" d="M174.9,618.2c1,0,2,0,3,0c1.4,0,2.5-1.1,2.5-2.5c0-1.4-1.1-2.5-2.5-2.5c-1,0-2,0-3,0
			c-1.4,0-2.5,1.1-2.5,2.5C172.4,617.1,173.5,618.2,174.9,618.2L174.9,618.2z"/>
	</g>
	<g clip-path="url(#SVGID_2_)">
		<path fill="#D8B571" d="M153.9,603.2c3.2,0,3.2-5,0-5C150.7,598.2,150.7,603.2,153.9,603.2L153.9,603.2z"/>
	</g>
	<g clip-path="url(#SVGID_2_)">
		<path fill="#D8B571" d="M207.9,597.2c3.2,0,3.2-5,0-5C204.7,592.2,204.7,597.2,207.9,597.2L207.9,597.2z"/>
	</g>
	<g clip-path="url(#SVGID_2_)">
		<path fill="#D8B571" d="M321.9,606.2c3.2,0,3.2-5,0-5C318.7,601.2,318.7,606.2,321.9,606.2L321.9,606.2z"/>
	</g>
	<g clip-path="url(#SVGID_2_)">
		<path fill="#D8B571" d="M390.9,603.2c3.2,0,3.2-5,0-5C387.7,598.2,387.7,603.2,390.9,603.2L390.9,603.2z"/>
	</g>
	<g clip-path="url(#SVGID_2_)">
		<path fill="#D8B571" d="M300.9,597.2c3.2,0,3.2-5,0-5C297.7,592.2,297.7,597.2,300.9,597.2L300.9,597.2z"/>
	</g>
	<g clip-path="url(#SVGID_2_)">
		<path fill="#D8B571" d="M444.9,600.2c3.2,0,3.2-5,0-5S441.7,600.2,444.9,600.2L444.9,600.2z"/>
	</g>
	<g clip-path="url(#SVGID_2_)">
		<path fill="#D8B571" d="M465.4,657.7c0-1,0-2,0-3c0-1.4-1.1-2.5-2.5-2.5s-2.5,1.1-2.5,2.5c0,1,0,2,0,3c0,1.4,1.1,2.5,2.5,2.5
			S465.4,659.1,465.4,657.7L465.4,657.7z"/>
	</g>
	<g clip-path="url(#SVGID_2_)">
		<path fill="#D8B571" d="M342.9,663.2c3.2,0,3.2-5,0-5C339.7,658.2,339.7,663.2,342.9,663.2L342.9,663.2z"/>
	</g>
	<g clip-path="url(#SVGID_2_)">
		<path fill="#D8B571" d="M366.9,684.2c3.2,0,3.2-5,0-5C363.7,679.2,363.7,684.2,366.9,684.2L366.9,684.2z"/>
	</g>
	<g clip-path="url(#SVGID_2_)">
		<path fill="#D8B571" d="M363.4,807.8c0-1,0-2,0-3c0-1.4-1.1-2.5-2.5-2.5c-1.4,0-2.5,1.1-2.5,2.5c0,1,0,2,0,3
			c0,1.4,1.1,2.5,2.5,2.5C362.3,810.3,363.4,809.1,363.4,807.8L363.4,807.8z"/>
	</g>
	<g clip-path="url(#SVGID_2_)">
		<path fill="#D8B571" d="M369.9,786.2c3.2,0,3.2-5,0-5C366.7,781.2,366.7,786.2,369.9,786.2L369.9,786.2z"/>
	</g>
	<g clip-path="url(#SVGID_2_)">
		<path fill="#D8B571" d="M348.9,792.3c3.2,0,3.2-5,0-5C345.7,787.3,345.7,792.3,348.9,792.3L348.9,792.3z"/>
	</g>
	<g clip-path="url(#SVGID_2_)">
		<path fill="#D8B571" d="M375.9,759.2c3.2,0,3.2-5,0-5C372.7,754.2,372.7,759.2,375.9,759.2L375.9,759.2z"/>
	</g>
	<g clip-path="url(#SVGID_2_)">
		<path fill="#D8B571" d="M435.9,666.2c3.2,0,3.2-5,0-5S432.7,666.2,435.9,666.2L435.9,666.2z"/>
	</g>
	<g clip-path="url(#SVGID_2_)">
		<path fill="#D8B571" d="M480.4,642.7c0-1,0-2,0-3c0-1.4-1.1-2.5-2.5-2.5s-2.5,1.1-2.5,2.5c0,1,0,2,0,3c0,1.4,1.1,2.5,2.5,2.5
			S480.4,644.1,480.4,642.7L480.4,642.7z"/>
	</g>
	<g clip-path="url(#SVGID_2_)">
		<path fill="#D8B571" d="M438.9,618.2c3.2,0,3.2-5,0-5S435.7,618.2,438.9,618.2L438.9,618.2z"/>
	</g>
	<g clip-path="url(#SVGID_2_)">
		<path fill="#D8B571" d="M1200.5,969.8c0-1,0-2,0-3c0-1.4-1.1-2.5-2.5-2.5s-2.5,1.1-2.5,2.5c0,1,0,2,0,3c0,1.4,1.1,2.5,2.5,2.5
			S1200.5,971.1,1200.5,969.8L1200.5,969.8z"/>
	</g>
	<g clip-path="url(#SVGID_2_)">
		<path fill="#D8B571" d="M1186,942.3c3.2,0,3.2-5,0-5C1182.8,937.3,1182.8,942.3,1186,942.3L1186,942.3z"/>
	</g>
	<g clip-path="url(#SVGID_2_)">
		<path fill="#D8B571" d="M1270,975.3c3.2,0,3.2-5,0-5C1266.8,970.3,1266.8,975.3,1270,975.3L1270,975.3z"/>
	</g>
	<g clip-path="url(#SVGID_2_)">
		<path fill="#D8B571" d="M1348,960.3c3.2,0,3.2-5,0-5C1344.8,955.3,1344.8,960.3,1348,960.3L1348,960.3z"/>
	</g>
	<g clip-path="url(#SVGID_2_)">
		<path fill="#D8B571" d="M1106.7,629c-1-1-2-2-3-3c-1-1-2.6-1-3.5,0s-1,2.6,0,3.5c1,1,2,2,3,3c1,1,2.6,1,3.5,0
			C1107.7,631.5,1107.7,629.9,1106.7,629L1106.7,629z"/>
	</g>
	<g clip-path="url(#SVGID_2_)">
		<path fill="#D8B571" d="M1141,603.2c3.2,0,3.2-5,0-5C1137.8,598.2,1137.8,603.2,1141,603.2L1141,603.2z"/>
	</g>
	<g clip-path="url(#SVGID_2_)">
		<path fill="#D8B571" d="M975.5,693.7c0-1,0-2,0-3c0-1.4-1.1-2.5-2.5-2.5c-1.4,0-2.5,1.1-2.5,2.5c0,1,0,2,0,3
			c0,1.4,1.1,2.5,2.5,2.5C974.3,696.2,975.5,695.1,975.5,693.7L975.5,693.7z"/>
	</g>
	<g clip-path="url(#SVGID_2_)">
		<path fill="#D8B571" d="M976,640.2c-2,0-4,0-6,0c-3.2,0-3.2,5,0,5c2,0,4,0,6,0C979.2,645.2,979.2,640.2,976,640.2L976,640.2z"/>
	</g>
	<g clip-path="url(#SVGID_2_)">
		<path fill="#D8B571" d="M913,588.2c3.2,0,3.2-5,0-5S909.7,588.2,913,588.2L913,588.2z"/>
	</g>
</g>
</svg>
